<svg viewBox="0 0 238.65 236.85" xmlns="http://www.w3.org/2000/svg"><g transform="translate(-.25 -.93)"><path d="m8.64 131.28-1.14-.17-.58-.42-6.67-1.32v-2.75l1.49-.26a3.94 3.94 0 0 0 -.19.9c2.12.91 4.26 1.77 6.4 2.63l.8 1.21a1.74 1.74 0 0 0 -.11.18z" fill="#a6a6ac"/><path d="m177 225.44-5.21-.17-6.24-.46h-1.26l-2.24.11 1.22-1c-.81 0-1.64-.15-2.45-.11q-7.89.47-15.78 1c-10.54.7-20.79-1.68-31.79 2.32-9.48 3.44-21.06 1.16-31.71 1.38a18.08 18.08 0 0 1 -2.51-.3c.87-.32 1.76-.57 2.59-1a9.25 9.25 0 0 0 1.43-1.08c-.18-.12-.38-.35-.56-.34a47 47 0 0 0 -7.89.46c-3 .62-5.78 2.3-8.77 2.72-1.81.25-3.89-.86-5.69-1.71-.37-.17 0-1.87 0-2.86-.25-3.46-.56-6.92-.85-10.38 0-.17 0-.33 0-.5q-.49-5.86-1-11.74l-.13-.25v-5.65l-.17-.82c0-1.14-.07-2.28-.11-3.42l.28-.84q.18-12.62.37-25.22l.18-2 .09-2.38.1-2.83.61-7.76-.6-12.2v-1.72l-.15-.52.17-2.51c-.77-1.29-1.47-3.63-2.33-3.7-4-.29-8.05.07-12.09.17-3.83.1-7.66.2-11.49.24-1.63 0-3.26-.12-4.9-.19 1.44-.35 2.87-.69 4.3-1.05a1.51 1.51 0 0 0 .37-.25 1.42 1.42 0 0 0 -.42-.15c-7.1.11-14.21.29-21.31.28-1 0-1.91-1-2.87-1.59a6.3 6.3 0 0 1 1.69-.9c2.73-.43 5.68-.25 8.17-1.25 3.17-1.25 6-3.37 8.87-5.27.42-.28.19-2.08.38-2.1q6.11-.63 12.24-1c4.21-.23 8.43-.33 12.65-.49h1l4.76-.72a13 13 0 0 0 .68-2.62c.38-6.57.36-13.18 1.16-19.7.45-3.68 2.26-7.17 3.3-10.8.19-.65-.38-1.53-.6-2.31-.12.65-.2 1.3-.35 1.94s-.3 1-.46 1.58c-.09-.19-.28-.39-.27-.57.56-7.46.91-15 1.76-22.37 1.45-12.48 3.18-24.84 4.83-37.28l.08-.87.4-2.71.07-.74c1.3-2.14 2.58-4.3 3.92-6.42.49-.78 1.12-1.48 1.68-2.22.7.56 1.8 1 2 1.7 1.12 3.5 2.85 7.07 2.85 10.63.09 11.24-.31 22.49-.86 33.72-.38 7.85-1.32 15.68-2 23.51l.06.78-.45 3-.12 1-.18 2v.76c-.08 1.49-.16 3-.23 4.49-.14.08-.4.15-.4.23-.12 7.37-.24 14.75-.27 22.12 0 .21.91.42 1.4.64l1 .09a4.47 4.47 0 0 0 1.32.38c11.36-.73 22.72-1.42 34.08-2.26 3.72-.27 7.41-.92 11.11-1.4l5.2-1.56 7.24-1 33-.46h5.49 1 1.24 1.26l11.17-.07.56.25c.15.12.3.34.46.35q18.13 1.27 36.27 2.51l2.65-.01a11.27 11.27 0 0 0 -2.13-1.63c-.93-.4-2-.37-3-.76-.79-.33-1.37-1.28-2.16-1.46a26.42 26.42 0 0 0 -4.19-.3l-1.55-.2-.24-.1c.05-1.49.07-3 .14-4.47q.93-18.85 1.85-37.7a21.53 21.53 0 0 0 -.22-2.76c-.18 1-.35 2-.53 3.05-.13.72-.27 1.43-.4 2.14a14.39 14.39 0 0 1 -.08-2.07c.55-5 1.33-9.93 1.66-14.92.81-12.24 1.27-24.5 2.21-36.73.22-2.9-.7-8.82 5.45-5.52 2.19 1.18 2.26 2.2 2.23-.78 0 0 .2-.06.22 0 1.08 1.2 2.7 2.26 3.11 3.66a60.08 60.08 0 0 1 1.34 8.55v1l.53 9.21-.05.76-.2 1.49q0 12.49 0 25l-.06.71-.46 3-.18 1.25c-.28 1-.57 2-.85 3-.28 0-.82.09-.82.1.24 3.22.52 6.45.79 9.67l.05.5.33 14v2.25 4.23l-.06 1.25c-.08.66-.15 1.32-.22 2l-.07 2.52-.18 1.48c-.24 1.92-.47 3.85-.71 5.77.4 4.78 1.08 9.57 1.11 14.35 0 5.82-.62 11.64-.71 17.46-.07 5.54.21 11.09.34 16.63v.51 1.75c.07.59.15 1.17.23 1.76l.15 2.2v.81.95c0 1.17.09 2.35.13 3.52l.09 8q-.28 9.74-.59 19.47c.13.76.26 1.51.38 2.27v.73l-.06.28-.2 1-.72-.87c0 .44.06.89 0 1.33-.09 2-.26 4-.26 6 0 .29.77.59 1.18.88a.14.14 0 0 0 .12-.09l.32 1c-.39 1.45-.79 2.91-1.19 4.36l-.36 1.33c-.11-.43-.22-.87-.34-1.3s-.23-.78-.34-1.17a4.29 4.29 0 0 1 -.37 1.44c-.84 1.16-1.8 2.24-2.69 3.37-.28.35-.51.75-.76 1.13-1.12 1.77-2.13 5-3.39 5.09-9.41.75-18.87.88-28.32 1.24-2.79.11-5.58.33-8.38.5zm-102.58-15.16.13 1.26-.3 3.73-.11 1.49v1.28c2.78.85 5.55 1.71 8.33 2.55.12 0 .3-.13.45-.2-1.34-.66-2.68-1.31-4-2-.09 0-.13-.2-.19-.31l9.25-.5 6.13.15h1 .78c4.66.45 9.33.93 14 1.32a14.86 14.86 0 0 0 2.71-.29c-.91-.32-1.81-.66-2.73-.95-.71-.22-1.45-.35-2.18-.53a3.2 3.2 0 0 1 .78-.2c3.38 0 6.75-.08 10.13 0 12.16.3 24.32.78 36.48.91 4.24 0 8.49-.86 12.75-1.16 6.09-.42 12.19-.86 18.3-1 8.15-.17 16.32 0 24.48-.08.59 0 1.65-.42 1.68-.74.52-5 1-10.08 1.29-15.13 0-.72-.57-1.49-.88-2.23 0 .65-.09 1.3-.07 2 .05 1.24.14 2.48.21 3.71l-.25-.07-.59.71-.1.52h-.49l-.15-.49.05-1.25-.05-1.25v-.74-.81l-.46-2.7-.05-.29.12-6.76.24-3.42c.25-1.33.49-2.67.73-4l-.11-1.62.27-11.87v-1.24l-.05-.75-.14-2.2q.33-12.51.65-25l.09-.75.05-.87.22-.87c.12-.84.23-1.68.34-2.53s.2-1.64.29-2.46l.24-2-.12-.8h.11l.05.09c.14-1.42.28-2.85.41-4.27l-.62-1.1-.56-.09h-.06l-3.83-.47h-1.11l-4.17.07-2.79-.28-1.14-.56c.51 0 1-.1 1.53-.11 4.32-.09 8.63-.16 13-.27a18 18 0 0 0 2.3-.35c-.71-.05-1.42-.08-2.13-.16-1.84-.19-3.69-.51-5.54-.6q-18.7-.84-37.41-1.59a9.35 9.35 0 0 0 -2.28.47c.25.23.5.65.75.66 9 .22 18 .39 26.94.6.33 0 .66.3 1 .46-.32.17-.62.48-1 .5-7.55.44-15.1.83-22.65 1.28-3.86.24-7.71.59-11.56.89l-2.9-.1-2.59.44h-4.25l-4.25.38-1.43-.09-3.32.23h-1.48c-3.84.23-7.69.43-11.52.7-7.82.56-15.64 1.16-23.45 1.74l-12.49.21-3.74-.23-4.74-.3-.74.06c-3.85.63-9.3-2.92-10.7 4.1q.23 10.08.47 20.16v.49q0 8 0 16l.12.3.14-.28.23-.53h.28l-.11 3-.26 6v.74l-1.21 21.47c.06.59.12 1.18.17 1.76v1l-.11.51v1h-.25l-.05.72.15 2.07-.14 2 .07.68h-.06v-.06zm141.49-.48-.34-4c-.34 2-.73 4.07-1 6.12 0 .33.46.72.72 1.08zm-132.75-83 1.87-.54a7.54 7.54 0 0 0 -1.82-.62 5.49 5.49 0 0 0 -1.67.4zm-54.93-4.23 1.7-.93a6.82 6.82 0 0 0 -1.79-.55c-.27 0-.56.61-.84 1zm6.1 6.5.38-.34c-.1 0-.21-.12-.31-.1s-.19.11-.29.17zm195.73 81.29-.19-.32a1 1 0 0 0 -.1.34 1.56 1.56 0 0 0 .09.34z" fill="#0b0b1a"/><path d="m76.16 80.16c.69-7.83 1.63-15.66 2-23.51.55-11.23 1-22.48.86-33.72 0-3.56-1.76-7.13-2.9-10.63-.23-.71-1.33-1.14-2-1.7-.56.74-1.19 1.44-1.68 2.22-1.34 2.12-2.62 4.28-3.92 6.42-.08-.34-.17-.68-.25-1v-1.1-.88-.51c.11-.47.22-1 .32-1.42s.39-1 .58-1.48l-.17-.43 1.14-.18.56-.93.4-3h.72.92l1.11-.49 1.51.3 2.7 1.15.51-.11 7.81-1.29h1l6.52-.1h1.71l1.51-.15 4-.13h.93l15.8-1.59 2-.1h3.26l.09.07h.11l.76.09 5.07-.11 8.43-.19 7.27.09c-5.84.38-11.84.8-17.73 1.25-11.78.88-23.56 1.74-35.33 2.73-1 .08-2 1.09-2.93 1.68l2.78.33c.27 0 .53.12.8.18a1.63 1.63 0 0 1 -.42.3c-2.21.8-4.43 1.57-6.63 2.41-.35.13-.58.57-.87.87.48.39.95 1.1 1.45 1.12 8.13.34 16.27.95 24.4.79 15.84-.32 31.69-1 47.52-1.7 10.73-.49 21.44-1.36 32.16-2 4.24-.23 8.5-.07 12.74-.37.84-.06 1.6-1.39 2.4-2.13-.33-.17-.65-.49-1-.5q-17.5-.66-35-1.27c-1.21-.05-2.42-.16-3.63-.23l3.8-.52 1.51-.23c-.2-.09-.4-.26-.6-.26l-33.47.56a4.08 4.08 0 0 1 -.83-.17c.26-.13.51-.37.77-.38 8.07-.35 16.14-.63 24.2-1.06a65.85 65.85 0 0 0 6.65-1h16l16.42.44v.31l-.1.08c-3.28 0-6.55 0-9.83 0a2 2 0 0 0 -.57.16c.13.08.25.21.38.22l14.12.21h.43l.2-.07.63.08h2.78l9.46.09 1.74.06h1.5l.47-.76c.1-.31.21-.61.32-.91l.07.09h.11l2.45-1.21.26.34.46.84.55-1.12.58-.25.72.29.62 1 .87-.73h.09.08l.75-.51.64.76.41 1.73.7-.55.52.82 1.12-.09h.42l.11.7v.89l.5-.33.92 1.08-.28.67-.29 3.78-.17 1.92-1 3.76a60.08 60.08 0 0 0 -1.29-8.53c-.41-1.4-2-2.46-3.11-3.66h-.22c0 3 0 2-2.23.78-6.15-3.3-5.23 2.62-5.45 5.52-.94 12.23-1.4 24.49-2.21 36.73-.33 5-1.11 9.95-1.66 14.92a14.39 14.39 0 0 0 .08 2.07c.13-.71.27-1.42.4-2.14.18-1 .35-2 .53-3.05a21.53 21.53 0 0 1 .22 2.76q-.9 18.86-1.85 37.7c-.07 1.49-.09 3-.14 4.47-.33-1.31-.65-2.63-1-3.94v-.49-1.49-1.56l.24-7.63v-.4q.32-5.2.61-10.4v-.36-10.62l.05-.76v-1-.73l.17-4v-.27l.24-7.24v-.75-.48l.07-.76q.25-2.76.53-5.51l.19-1.79.35-2.48c.07-.48.14-1 .2-1.42l.12-.85.05-1.42c.17 0 .49-.07.5-.12q.39-5.93.74-11.85l.36-7c0-.92 0-1.83 0-2.75l.06-1.78.09-.46-.93-2.39-16.15.37a1.42 1.42 0 0 0 -.35.11c.09.06.18.16.28.18l7 .92h1.44l.51.78h-.75c-.28 0-.65-.19-.84-.08-.41.26-.68.89-1.09 1a17.55 17.55 0 0 1 -2.72.09 19.89 19.89 0 0 1 2.18.39 4.9 4.9 0 0 1 -.08 1.07h-1.47l-.81-.06h-.61l-5.24.39 2.5.31-.86.85-3.39-.08-.76-.2-2.22-.13-10-.87-4-.11h-.78l-1.23-.05-1-.17-3.91-.11-5.77-.93c-5.71 0-11.41-.21-17.11 0-3.23.11-6.43.79-9.65 1.22l-4 .24a1 1 0 0 0 0-.17l2-.05.44-.11-.39-.16-2.28-.09-14.42.58-2.56-.05-12 .1-9.69.07h-2l-1 .11h-2.27l-.8.13-.23.11-1.7-.08c-3.17.14-8.69-.53-9.06.56-1.18 3.43-.42 7.53-.41 11.37v.64l-.08 2.79-.27 8-.2 1.31-.07 1.22c-.13 1.44-.25 2.89-.37 4.34l-.16 2.14-.05 1.3v1.58l-.37 2.11-.06 1-.15 2.42-.16 1.65v1.34l-.14 1.59-.15 1.91-.12 1.08v1.26a.22.22 0 0 0 -.15.15l-.17 1.33v.67l-.4 3.09v.24l-.06.4-.71 4-.44 1-.2.87h-.28l-.07-.7zm139.46-70.85c2 0 3 .06 3.93 0 .23 0 .42-.55.62-.84l-7.48.53zm-23.73 4.84-.42.38c.14.07.28.19.41.18a1.91 1.91 0 0 0 .49-.21z" fill="#151524"/><path d="m52.19 116.41c-4.22.16-8.44.26-12.65.49s-8.17.55-12.24 1c-.19 0 0 1.82-.38 2.1-2.87 1.9-5.7 4-8.87 5.27-2.49 1-5.44.82-8.17 1.25a6.3 6.3 0 0 0 -1.69.9c1 .56 1.91 1.58 2.87 1.59 7.1 0 14.21-.17 21.31-.28a1.42 1.42 0 0 1 .42.15 1.51 1.51 0 0 1 -.37.25c-1.43.36-2.86.7-4.3 1.05 1.64.07 3.27.21 4.9.19 3.83 0 7.66-.14 11.49-.24 4-.1 8.08-.46 12.09-.17.86.07 1.56 2.41 2.33 3.7h-1.56a.19.19 0 0 1 -.15-.11l-2.29-.94h-2.48-1.54-.65l-1.56-.11h-2.49l-3.75.05a.21.21 0 0 0 0-.19l3.68-.33 1-.25.92-.39c-.45-.27-.94-.82-1.33-.76-1.38.22-2.73.65-4.09 1a.28.28 0 0 1 -.16.16l-2.12.08-.89.21-2.25.6h-3.45l-1.55.17-1.22.15h-3.29l-.49.06-.53.33h-.47l-2-.06-1.74.15h-1.18l3.41-1.4c.47-.19.94-.35 1.4-.52-.58 0-1.18 0-1.76 0l-8.36.47-5.07-1.36-.93.09-2-1c-2.14-.86-4.28-1.72-6.4-2.63a3.94 3.94 0 0 1 .19-.9l.29-.22 1.52-.23.45-.06 3.57-1.72.5-.09c.79-1.15 1.57-2.32 2.38-3.46.51-.71 1.09-1.38 1.63-2.06l4.37-.65.55-.29 7.94-.8h.45l3.09-.68.95.08 1.79-.08h3l1.23-.06 2.44-.07 6.81.26h.46l4.56-.08h.49l2 .17zm-30 2.54 2.55-.49c-.15 0-.3-.16-.43-.14-1.18.13-2.34.29-3.51.44zm4 10.75-.79.6c.3.18.6.51.9.51s.53-.36.8-.56zm-6.12-10.9a3.07 3.07 0 0 0 -.78-.14c-.13 0-.23.21-.35.32a2.91 2.91 0 0 0 .56.11c.11 0 .23-.09.56-.29zm-3.82.63.34-.31c-.08-.06-.18-.2-.24-.18a1.48 1.48 0 0 0 -.38.23zm-5.62 1.77v.06h.06z" fill="#151524"/><path d="m59.3 214c.29 3.46.6 6.92.85 10.38.07 1-.35 2.69 0 2.86 1.8.85 3.88 2 5.69 1.71 3-.42 5.79-2.1 8.77-2.72a47 47 0 0 1 7.89-.46c.18 0 .38.22.56.34a9.25 9.25 0 0 1 -1.43 1.08c-.83.39-1.72.64-2.59 1a18.08 18.08 0 0 0 2.51.3c10.65-.22 22.23 2.06 31.71-1.38 11-4 21.25-1.62 31.79-2.32q7.89-.53 15.78-1c.81 0 1.64.07 2.45.11l-1.22 1-3 .26-5.78 1-1.92-.07-7-.13h-1.55-.67l-2.53.06-.54.08-.66.07h-1l.65-.66-4.56.34h-3.32l-.84-.15-2.27-.08-6.13.09c1.15.17 2.31.33 3.46.52.07 0 .1.29.15.45h-.7-1l-1 .09-4.06 1.23-.61.26-1 .52-.29.19h-1.24l-2 .64-1 .06-1.78.17-1.38.08-7.58-.95c-1.53 0-3.07-.13-4.58 0a27.42 27.42 0 0 0 -3.83.94l3 .52 1.44.05-8.28 1.21-5.43.16-2.23-.3-1.59-.3-5 .45.51-.38.57-.26 3.28-.22c.44 0 .88-.08 1.33-.13-.1-.07-.2-.21-.29-.21l-4.4.23-2.61.91v.43l-.21.13-1.84.24c-1.77 1.11-3.55 2.21-5.3 3.34-.14.09-.12.43-.17.66l-.17-.73-.61-2.59c-.36.88-.72 1.76-1.09 2.63-.24.54-.51 1.07-.77 1.6l-.34-.2-.92-1.05-.19-.35-.75-2-1.63-5-.62-.73-.19-3.02.07-.74c.22-2.26.43-4.52.65-6.77l.08-.5.14-.77c0-.23-.09-.46-.14-.69l.06-1.26zm9 17.48-.74-1.48-1.15 1.48a4.52 4.52 0 0 0 1.16.5c.22.02.49-.28.78-.48zm3.33-.65c-.13.26-.26.41-.24.51s.21.21.32.32c.08-.12.23-.24.23-.36s-.09-.21-.26-.45z" fill="#151524"/><path d="m68 23.56c-1.6 12.41-3.33 24.8-4.74 37.23-.85 7.42-1.2 14.91-1.76 22.37 0 .18.18.38.27.57.16-.53.34-1 .46-1.58s.23-1.29.35-1.94c.22.78.79 1.66.6 2.31-1 3.63-2.85 7.12-3.3 10.8-.8 6.52-.78 13.13-1.16 19.7a13 13 0 0 1 -.68 2.62q0-4.77-.11-9.54v-.46l.28-1-.21-1.11.21-11.4c.1-1.24.21-2.48.32-3.72v-.92l.13-.8v-1.54l-.14-1.38-.29-1.36-.08-.48-.39-1.36.24-10.89 2-2c-.11 3.19-.23 6.37-.33 9.56 0 .44.05.89.07 1.34.09-.07.26-.14.26-.23q.75-7.15 1.47-14.32l.37-2.87c0-.36 0-.71 0-1.06s.13-.48.19-.72l.12-1.69.14-.56-.29-1.39.29-.11.36-1.69.3-3.45 2.21-9v-.26l.17-1 .19-1.48v-1l.16-3.43 1.4-7.32-.08-3.73z" fill="#151524"/><path d="m185.8 225c2.8-.17 5.59-.39 8.38-.5 9.45-.36 18.91-.49 28.32-1.24 1.26-.11 2.27-3.32 3.39-5.09.25-.38.48-.78.76-1.13.89-1.13 1.85-2.21 2.69-3.37a4.29 4.29 0 0 0 .37-1.44c.11.39.24.78.34 1.17s.23.87.34 1.3l.36-1.33c.4-1.45.8-2.91 1.19-4.36l.33.23.36 6.39h-.61l-.56-1.44a20.85 20.85 0 0 0 -1.56 2.75c-.12.32.38.89.59 1.35l1.17 2.55-.26.35-.59.25a1.25 1.25 0 0 0 .11.29 5.66 5.66 0 0 0 .58-.2c-.35.84-.47 2-1.1 2.43a42.31 42.31 0 0 1 -5.1 2.37.09.09 0 0 0 .1.09l-.65.57-.48-.74-2.8-.42-2.89-.13-1.85-.12-1.16-.23-1.05-.13-2.11.43h-.9l-.58.16a.39.39 0 0 0 -.17.14h-.76l-2.31.19h-1.9c-1.79-.25-3.57-.66-5.36-.74-4.85-.17-9.74-.24-14.63-.4z" fill="#151524"/><path d="m231.23 157.58c-.13-5.54-.41-11.09-.34-16.63.09-5.82.75-11.64.71-17.46 0-4.78-.71-9.57-1.11-14.35a24.29 24.29 0 0 0 1-3c.27-1.27.33-2.57.48-3.86.13 1.13.22 2.26.38 3.39s.34 2 .52 3v.53.48 1.51c.35.74.69 1.49 1 2.24.05.44.11.87.16 1.31l-.2.7.71.81.06.2.93.55-.18 1.42-1.19.22-.13 1.54-.15 1.48v.77l-.14 1.45v.57l-.1 1.48-.83 3.69-.06 2-.33 6.55-.07 1.24-.08.76q-.48 6-.94 12v.52l.15 4.83zm1.71-38.06-.43 2.1v3.84c.33-1.28.67-2.55 1-3.82v-2l-.19-.71z" fill="#151524"/><path d="m144.87 5.7-7.27-.09-5.22-.45v-.33c5.71-.1 11.43-.17 17.14-.31 4.44-.11 8.89-.33 13.33-.43a6.11 6.11 0 0 1 1.83.56c-.48 0-1 0-1.43 0-.1 0-.18.21-.27.32l1.49.51c0 .2-.08.39-.13.58l-14.74-.4h-3.49zm-4.43-1-1 .12a3.1 3.1 0 0 0 .74.13 9.88 9.88 0 0 0 1.08-.11zm3.59.09a3.94 3.94 0 0 0 -.68 0c-.06 0-.1.11-.15.17a2 2 0 0 0 .35 0 3.17 3.17 0 0 0 .45-.15z" fill="#b0b0b6"/><path d="m58.57 165.58-.37 25.22-.59-1.12q-.66-7.94-1.34-15.86l.11-1 .16-1.68c.25 1 .52 2 .74 3.08a13.46 13.46 0 0 1 .15 1.57 10.71 10.71 0 0 0 .37-1.56c.28-2.9.52-5.78.77-8.65z" fill="#151524"/><path d="m62.33 55.63-.29.11c.08.48.17.95.25 1.43 0 .18-.09.37-.14.56-.16.56-.33 1.12-.49 1.68l-.21 1.76h-.05c-.48 2.17-.95 4.33-1.42 6.5h-2l1.51-9.67 2.39-4.72.11-.93-.84-3.13c.07-.24.15-.48.23-.71.09-.44.19-.87.29-1.3.47-1.74.94-3.47 1.42-5.21l.6-1.24 1.91-2c-.06.49-.13 1-.19 1.48s-.12.68-.17 1v.26c-.74 3-1.48 6-2.21 9l-.3 3.45z" fill="#a6a6ac"/><path d="m117.87 5.84-15.8 1.59-.94-.08-1.21-.27 2.71-.6h.52.48l3.27-1.91h1.22l1.56-.41h.72 1l7.91.51 1.79.41v.29l-1.21.29z" fill="#61616b"/><path d="m232.71 20 1-3.76c.34.94.67 1.87 1 2.81v2q-.28 3.39-.59 6.77-.31 14.18-.64 28.33a4.77 4.77 0 0 1 -.45 1.35q0-12.49 0-25c.07-.49.13-1 .2-1.49 0-.25 0-.5.05-.76q-.28-4.65-.59-9.25z" fill="#61616b"/><path d="m159.1 225.15 3-.26 2.24-.11h1.26l6.24.46c-4.9.82-9.79 1.68-14.7 2.44a14.89 14.89 0 0 1 -3.05-.12c1.5-.51 3-1.1 4.52-1.48a22.77 22.77 0 0 1 3.33-.35z" fill="#b0b0b6"/><path d="m185.8 225c4.89.13 9.78.2 14.66.41 1.79.08 3.57.49 5.36.74l-.27.21h-.55l-.73-.07-16 .19h-1.26l-.7-.23-9.32-.8z" fill="#61616b"/><path d="m186.35 226.24.7.23h1.26l16-.2c-.38.16-.76.33-1.15.48l-3.61 1.4c-4.24-.21-8.48-.42-12.71-.7-.2.02-.33-.78-.49-1.21z" fill="#a6a6ac"/><path d="m231.18 196.53.59-19.47.16 3.5.12 2.13-.05 2.37c-.08.81-.17 1.62-.23 2.44-.2 3.01-.39 6.02-.59 9.03z" fill="#151524"/><path d="m58.17 92.13-.17 11.4h-.44l-.08-.25-1.39-1.13c.08-3.07.17-6.13.25-9.2l.92-1.75z" fill="#61616b"/><path d="m232.93 7.52h-.42l2.2-1.74c.1.38.09 1 .31 1.11 5.62 2.29 3.95 5.06.57 8a4.76 4.76 0 0 0 -.61.84v-1.53a.6.6 0 0 1 .02-.2 53.07 53.07 0 0 0 .28-5.77c.03-.23-1.51-.48-2.35-.71z" fill="#b0b0b6"/><path d="m164.32 6.11c.05-.19.09-.38.13-.58h18.56c.2 0 .38.43.57.66h-16z" fill="#a6a6ac"/><path d="m231.67 97.39.06-1.25v-4.23c0-.75 0-1.5 0-2.25l.55-.5q.84 4.62 1.69 9.24v1 .5c-.09.34-.17.69-.26 1-.19 1.72-.37 3.44-.55 5.16-.49-2.31-1-4.62-1.48-6.93z" fill="#b0b0b6"/><path d="m57.37 133.67h1.56c-.06.84-.11 1.67-.17 2.51l.15.52v1.72c-.4 2.49-.79 5-1.19 7.47l-.59 5.2h-.47l-.18-4.91v-1.17-.33c0-.37.07-.75.11-1.12l.12-.71c.08-.57.15-1.13.22-1.7h.1.1l.13 2.09a.91.91 0 0 0 .13-.33c0-2.2 0-4.4-.07-6.59z" fill="#61616b"/><path d="m58.81 228.75 1.63 5-1.95 2.25-1.05-2.2v-4c.05-.15.06-.36.16-.43.4-.23.82-.37 1.21-.62z" fill="#61616b"/><path d="m159.1 225.15 2.82.61a22.77 22.77 0 0 0 -3.33.35c-1.54.38-3 1-4.52 1.48-3.69-.27-7.37-.52-11-.84-.31 0-.59-.51-.88-.78h.67 1.55l7 .13-3.23.39c.09.09.18.25.26.24l4.89-.56z" fill="#a6a6ac"/><path d="m121.91 226.83 1-.09h1 .7l2.93-.22-.41-.84 2.27.08.84.15h3.32l1.09.51-7 1.61-6.32.28-1.12-.12z" fill="#a6a6ac"/><path d="m102.63 6.48-2.71.6 1.21.27v.09l-4 .13-4.91-.57 7.78-1.11c.25 0 .5-.09.75-.13a2.28 2.28 0 0 0 -.45-.52c-.53-.34-1.1-.64-1.65-1 .69 0 1.37-.07 2.06-.06 0 0 .08.64.09.64 1.21-.1 2.41-.24 3.62-.38-.27.65-.53 1.29-.79 1.94h-.48l-1.32-.38-.23-.7-.39.2.43.51z" fill="#b0b0b6"/><path d="m232.31 89.16-.55.5-.33-14h.45v.48c0 .58.07 1.16.1 1.74q.16 5.66.33 11.28z" fill="#151524"/><path d="m232.84 131.56.06-2 1.84-3.2v.71c.17 1.28.34 2.55.5 3.82v1.95l-.06.5c-.05.29-.09.58-.14.88s0 .67 0 1l-.05 1.13v.48l-.27 1-1.38.48v-1c.24-.16.7-.37.68-.48-.4-1.74-.79-3.5-1.18-5.27z" fill="#a6a6ac"/><path d="m96.88 230.52-1.44-.05 5.44-1.48 7.58.95-13.84 2a11.51 11.51 0 0 1 1.4-.47c1.28-.27 2.58-.5 3.87-.74z" fill="#a6a6ac"/><path d="m61.15 49.18.85 3.13c0 .31-.08.62-.11.93l-2.4 4.76c-.16 0-.45 0-.47 0-.18.53-.31 1.08-.46 1.63a11.63 11.63 0 0 1 .2-1.88c.77-2.87 1.59-5.75 2.39-8.57z" fill="#b0b0b6"/><path d="m231.74 99.16c.49 2.31 1 4.62 1.48 6.93l-.3 2.53c-.18-1-.38-2-.52-3s-.25-2.26-.38-3.39c-.15 1.29-.21 2.59-.48 3.86a24.29 24.29 0 0 1 -1 3c.24-1.92.47-3.85.71-5.77l.18-1.48c0-.84 0-1.68.07-2.52z" fill="#61616b"/><path d="m62.64 237.35c.26-.53.53-1.06.77-1.6.37-.87.73-1.75 1.09-2.63l.61 2.59.17.73c0-.23 0-.57.17-.66 1.75-1.13 3.53-2.23 5.3-3.34l.91.75-3.84.28-4.7 4.32z" fill="#a6a6ac"/><path d="m58.81 228.75c-.39.21-.8.39-1.17.62-.1.07-.11.28-.16.43-.3-.92-.6-1.84-.91-2.76 0-3.06-.07-6.12-.07-9.18a4 4 0 0 1 .27-1.06l.6.87c.05.24.11.48.17.73l-.09 1.73c-.08 2-.17 4-.25 6l.8-1.13.23 3-.17.43h.11l.06-.47z" fill="#b0b0b6"/><path d="m231.18 196.53c.2-3 .39-6 .59-9 .06-.82.15-1.63.23-2.44l.51 1.5-.25 12-.56.25h-.13c-.13-.84-.26-1.55-.39-2.31z" fill="#a6a6ac"/><path d="m127.65 228 7-1.61 2.82-.19h1l.37.35.29-.42.54-.08c-1.31.26-2.64.44-3.92.78-2 .53-4 1.31-6.05 1.71a44.32 44.32 0 0 1 -5.42.4z" fill="#b0b0b6"/><path d="m57.37 213.11-.57 1.27a5.88 5.88 0 0 1 -.47-1.78c.12-2.84.33-5.68.51-8.53.27 1 .53 2 .79 3.06.29 1.29.58 2.57.86 3.86l-.05.78zm-.43-2 .1.58a3.2 3.2 0 0 0 .15-.61 3 3 0 0 0 -.12-.56c-.07.22-.07.41-.13.61z" fill="#b0b0b6"/><path d="m39.54 132.12.89-.21 1.53.46.51.23 3.75-.05v1.45l-7.81-1.24zm1.77.86h-.18s0 .06.08.06.07-.04.1-.04z" fill="#a6a6ac"/><path d="m57.88 106.1q.06 4.77.11 9.54l-3.8.4 1.27-.58h.77l.69-3q.28-3.09.58-6.18z" fill="#61616b"/><path d="m231.88 75.69h-.45c0-.17 0-.33-.05-.5v-9.77c.28-1 .57-2 .85-3q0 6.25-.08 12.49z" fill="#61616b"/><path d="m58.57 165.58c-.25 2.87-.49 5.75-.77 8.62a10.71 10.71 0 0 1 -.37 1.56 13.46 13.46 0 0 0 -.15-1.57c-.22-1-.49-2.05-.74-3.08-.11-1.42-.21-2.85-.32-4.28l1.17 2.61.12-3.62.21-1.23.72-1h.31z" fill="#61616b"/><path d="m235.49 118.37.18-1.42-.93-.55-.06-.2-.71-.81.2-.7.83.19 1 .74 1.7 1.09-1 3.41h-2.58c0-.52.08-1 .13-1.54.18.27.3.7.55.79s.69-.08 1-.14z" fill="#a6a6ac"/><path d="m12.12 118.38c-.54.68-1.12 1.35-1.63 2.06-.81 1.14-1.59 2.31-2.38 3.46.64-1.74 1.27-3.49 1.91-5.23l.16-.12z" fill="#61616b"/><path d="m81 231.55 2.15.34-10.3 1.26-.28-1 .21-.12 1.65-.38 5-.45z" fill="#a6a6ac"/><path d="m121.1 5.23v-.29l11.23-.11v.33l-3.21.64-5.07.11-.76-.09h-.11l-.09-.07z" fill="#a6a6ac"/><path d="m232.27 209.27-.33-.23-.32-1 .14-1v-.49l1.61-1.79 1.3.93.72.84z" fill="#b0b0b6"/><path d="m119.34 4.53-7.91-.53h-1l10.23-.45v.1z" fill="#b0b0b6"/><path d="m21.3 133.52h1.18l.06.47-6.26.41c-.21-.26-.37-.62-.64-.76-1-.57-2.1-1.07-3.16-1.59l3.51.06-.59.39c.14.13.26.34.41.36 1.82.24 3.66.45 5.49.66z" fill="#a6a6ac"/><path d="m10 118.67c-.64 1.74-1.27 3.49-1.91 5.23l-.5.09h-.31l-1.11-1.58c-.14-.34-.27-.67-.4-1 .49-.81 1-1.62 1.46-2.42z" fill="#a6a6ac"/><path d="m57.63 207.13c-.26-1-.52-2-.79-3.06 0-.31 0-.62 0-.94s.07-.39.1-.59c-.14-1.22-.27-2.44-.4-3.67l.68-.75.94 3.41.13.25c-.2 1.78-.43 3.57-.66 5.35z" fill="#61616b"/><path d="m57.51 165.82-.12 3.62-1.17-2.61q-.11-3.12-.2-6.24l.78-.27c.12 1 .23 1.94.35 2.91z" fill="#a6a6ac"/><path d="m12.12 118.38-1.94.17 14.87-2.46-.07.55-7.94.8-.55.29z" fill="#a6a6ac"/><path d="m86.42 7.88-7.8 1.29-.56-.93v1l-2.66-1.11.6-.19a.29.29 0 0 0 .2 0l1.09-.11h.34l6.88-.28z" fill="#61616b"/><path d="m204 7.57-14.14-.25c-.13 0-.25-.14-.38-.22a2 2 0 0 1 .57-.16h9.83c.3.11.6.23.91.33 0 0 .08-.16.13-.25l-.92-.12v-.31z" fill="#61616b"/><path d="m233.39 204.75-1.61 1.79c-.1-.22-.28-.44-.27-.65 0-1.46.11-2.91.18-4.36v-.73l-.2-1 .06-.28.17-.73.56-.25z" fill="#61616b"/><path d="m12.48 132.05c1.06.52 2.13 1 3.16 1.59.27.14.43.5.64.76l-6.19-1.35.7-.77.78-.22zm-.83.35-.18.08.16.09s.07 0 .1 0a.39.39 0 0 0 -.08-.17z" fill="#b0b0b6"/><path d="m68 23.56-1-.29h-.65l-.06-.5-.1-.76v-.51l2-3.25c.08.34.17.68.25 1s0 .49-.07.74l-.37 2.7z" fill="#61616b"/><path d="m96.88 230.52 3 .22c-1.29.24-2.59.47-3.87.74a11.51 11.51 0 0 0 -1.4.47l-6-.22z" fill="#61616b"/><path d="m234.71 5.73-2.2 1.74-1.12.09c-.41-.75-.83-1.5-1.25-2.25l.19-2.72c.22.74.24 1.91.7 2.12a14.84 14.84 0 0 0 3.52.68l.41.27z" fill="#a6a6ac"/><path d="m225.31 226.34a42.31 42.31 0 0 0 5.1-2.37c.63-.39.75-1.59 1.1-2.43l-.1-.34.26-.35c.25.71.49 1.42.73 2.13-.11.29-.23.58-.35.87l-5.6 2.62z" fill="#a6a6ac"/><path d="m232.84 131.56c.39 1.77.78 3.53 1.12 5.31 0 .11-.44.32-.68.48l-.77.76z" fill="#b0b0b6"/><path d="m66.37 23.24h.65l.06 3.76-1.17 2h-.77c0-.51.07-1 .11-1.53v-1.18c.16-1 .33-2 .5-3z" fill="#a6a6ac"/><path d="m57.37 213.11 1.07-1.34h.12.12l.33 1.73-.32.51.07 1.54c.05.23.09.46.14.69s-.1.51-.14.77l-.08.5-1.14.88c-.06-.25-.12-.49-.17-.73z" fill="#a6a6ac"/><path d="m92.22 7 4.92.59-1.51.15h-1.71l-6.52.1 2.75-.6 1.43-.24z" fill="#61616b"/><path d="m68.25 18.22-2 3.25c.68-1.91 1.35-3.83 2-5.74v.51.88z" fill="#a6a6ac"/><path d="m199.53 228.19 3.61-1.4c.39-.15.77-.32 1.15-.48l.73.08v.44z" fill="#b0b0b6"/><path d="m58.18 201.53c-.31-1.14-.63-2.27-.94-3.41-.18-1-.37-1.89-.56-2.84l-.2-2.76h.37l1 3.51.36-.13z" fill="#a6a6ac"/><path d="m65.91 29 1.17-2c-.43 2.41-.85 4.83-1.28 7.25v-3.12c.01-.72.06-1.44.11-2.13z" fill="#61616b"/><path d="m58.24 82.41c.1.45.19.91.29 1.36s.1.92.14 1.38v1.54l-.45.72h-.09a.17.17 0 0 0 0 .08l.09-.14.33.09v.92l-1 .29z" fill="#b0b0b6"/><path d="m63.12 237.79 4.7-4.32z" fill="#b0b0b6"/><path d="m71.14 8.33c-.14 1-.27 2-.4 3l-.56.94-1.18.15c.38-1.21.77-2.42 1.15-3.62z" fill="#a6a6ac"/><path d="m233.31 138.33 1.38-.48c-.15 1.69-.26 3.38-.47 5.07a4.41 4.41 0 0 1 -.62 1.3 8.58 8.58 0 0 0 .17-1.58c-.12-1.44-.31-2.87-.46-4.31z" fill="#b0b0b6"/><path d="m7.3 124h.31l-3.61 1.85.48-1.32.41-.11.67-.17 1.18-.13z" fill="#61616b"/><path d="m84.48 7.62-6.88.28 2.31-.21h.76z" fill="#a6a6ac"/><path d="m103.63 6.42c.26-.65.52-1.29.79-1.94h2.48z" fill="#a6a6ac"/><path d="m231.59 164.61v-.81a4.12 4.12 0 0 0 .44-1c.14-1 .2-2.09.3-3.13.1.21.29.43.29.64v6.24z" fill="#b0b0b6"/><path d="m91.58 7-1.43.23-1.21-.65 4.08-1z" fill="#b0b0b6"/><path d="m235 14.14v1.53c-.1 1.12-.2 2.24-.31 3.36-.33-.94-.66-1.87-1-2.81.06-.64.12-1.28.17-1.92z" fill="#a6a6ac"/><path d="m232.17 157.27c.19-2.83.27-4.69.45-6.53a4.27 4.27 0 0 1 .57-1.28 8.83 8.83 0 0 1 0 1.36c-.22 1.83-.48 3.65-.73 5.48-.06.48-.13.95-.19 1.43-.1-.48-.2-.95-.1-.46z" fill="#b0b0b6"/><path d="m231.66 220.84-1.17-2.55.2-1.31z" fill="#a6a6ac"/><path d="m46.26 134c0-.48 0-1 0-1.45h2.44v.32l-.71.06s0 .1 0 .1l.65-.17 1.49.26a.93.93 0 0 1 0 .23l-2.22.48z" fill="#61616b"/><path d="m228.37 5.31h-.08-.09l-1.49-.31.29-2.23 1.54 1.09c-.08.49-.13.97-.17 1.45z" fill="#b0b0b6"/><path d="m58 67.7h2l-2 2z" fill="#61616b"/><path d="m236.75 120.12 1-3.41c.41.28 1.2.63 1.16.83a14.61 14.61 0 0 1 -.94 2.92 10.75 10.75 0 0 1 -1.22-.34z" fill="#b0b0b6"/><path d="m48 133.83 2.22-.48.32-.1-.3-.13.07-.46h.65 1.54 2.48l-.42.53-2.31.27z" fill="#b0b0b6"/><path d="m44.71 116.11-6.81-.26z" fill="#61616b"/><path d="m70.19 8.8c-.38 1.2-.77 2.41-1.15 3.62 0 .14.1.27.14.41l-.79-.15z" fill="#b0b0b6"/><path d="m233.91 152.41c.07.78.18 1.56.19 2.34 0 1.3-.07 2.61-.11 3.92-.2-1.44-.41-2.88-.61-4.33.18-.64.35-1.29.53-1.93z" fill="#a6a6ac"/><path d="m120.21 228.12 1.12.12-4 1.43 2.27-1.4.4-.09a.36.36 0 0 1 .21-.06z" fill="#b0b0b6"/><path d="m58.49 236 1.95-2.21.75 2z" fill="#b0b0b6"/><path d="m221.48 225.84 2.8.42-.29 1z" fill="#a6a6ac"/><path d="m56.57 227c.31.92.61 1.84.91 2.76v4c-.22-.6-.43-1.19-.64-1.79 0-.65-.07-1.31-.11-2z" fill="#a6a6ac"/><path d="m56 221.26-.21 3.62c-.13-1-.35-2-.39-3 0-1.24.08-2.5.13-3.74z" fill="#b0b0b6"/><path d="m56.89 112.44-.69 3c0-.73 0-1.47-.07-2.2s-.06-1.62-.09-2.43z" fill="#b0b0b6"/><path d="m120.21 228.12a.36.36 0 0 0 -.2.06h-.68l-1.54-.18 4.12-1.17z" fill="#61616b"/><path d="m234.05 27.76q.3-3.37.59-6.77-.28 3.39-.59 6.77z" fill="#a6a6ac"/><path d="m11.57 132.06-.78.22h-.58l-.73-1.12.51-.33.93-.09c.21.45.43.89.65 1.32z" fill="#a6a6ac"/><path d="m57.22 91.23-.92 1.77 1.14-4.32c-.04.86-.13 1.7-.22 2.55z" fill="#b0b0b6"/><path d="m226 4.76-.58.25-1 .25c-.08-.12-.17-.23-.26-.34-.29-.39-.57-.79-.86-1.19l.88-.62a.68.68 0 0 1 .26-.12c.47-.07.94-.12 1.41-.17.07.65.15 1.29.15 1.94z" fill="#b0b0b6"/><path d="m55.43 115.51-1.27.58h-1-1l-2-.17z" fill="#b0b0b6"/><path d="m56.8 160.32-.78.27c.2-1.62.4-3.23.61-4.85.06.41.11.82.17 1.23z" fill="#b0b0b6"/><path d="m56.68 195.28c.19.95.38 1.89.56 2.84l-.68.75z" fill="#b0b0b6"/><path d="m56.8 157c-.06-.41-.11-.82-.17-1.23 0-1.55 0-3.1.07-4.65h.47v5.85z" fill="#a6a6ac"/><path d="m230.69 217-.2 1.31c-.21-.46-.71-1-.59-1.35a20.85 20.85 0 0 1 1.56-2.75l.56 1.44v.64l-.4.42-.67.18z" fill="#61616b"/><path d="m233.91 152.41c-.18.64-.35 1.29-.53 1.93.05-.72.09-1.45.16-2.18.11-1.09.23-2.18.34-3.28z" fill="#b0b0b6"/><path d="m205.55 226.39.27-.21h1.9l1.58.39-3.77.36z" fill="#b0b0b6"/><path d="m57.36 136.31c0 2.19 0 4.39.07 6.59a.91.91 0 0 1 -.13.33c0-.69-.08-1.39-.13-2.09s-.2-1.52-.31-2.28z" fill="#b0b0b6"/><path d="m223.33 3.73c.29.4.57.8.86 1.19l-2.45 1.21v-.86z" fill="#a6a6ac"/><path d="m7.25 118.94c-.49.8-1 1.61-1.46 2.42.49-.81.97-1.62 1.46-2.42z" fill="#b0b0b6"/><path d="m54.51 133.15.42-.53 2.29.94h-2.76a.14.14 0 0 0 0-.18.31.31 0 0 1 .05-.23z" fill="#61616b"/><path d="m204.66 7.51-.2.07c1.31-.11 2.62-.21 3.93-.33l1.21-.12s-.11-.09-.14-.08l-1.39.54h-2.78l-.19-.44zm1.34-.22h-.08v.11h.08s0-.09 0-.11z" fill="#61616b"/><path d="m65.91 29c0 .72-.1 1.44-.14 2.17l-.62.32c0-.83 0-1.66 0-2.49z" fill="#b0b0b6"/><path d="m226 4.76c0-.65-.09-1.29-.13-1.94 0-.19 0-.37 0-.56l1-.25.06.76-.24 2.28z" fill="#a6a6ac"/><path d="m235.27 130.9c-.16-1.27-.33-2.54-.5-3.82.17 1.28.34 2.55.5 3.82z" fill="#b0b0b6"/><path d="m72.05 8 2.41-1.38-.6.66-1.23.72z" fill="#b0b0b6"/><path d="m234.74 126.37-1.84 3.2c.27-1.23.55-2.46.83-3.69z" fill="#b0b0b6"/><path d="m56.05 102.18 1.39 1.13h-1.39z" fill="#151524"/><path d="m235.41 206.52-.72-.84c-.13-.91-.25-1.82-.38-2.74.11 0 .31 0 .32.07.27 1.17.52 2.34.78 3.51z" fill="#a6a6ac"/><path d="m233.34 178.44-.23 2.44a7.59 7.59 0 0 1 -.26-1.31c0-1.16.05-2.33.08-3.5.15.86.3 1.72.41 2.37z" fill="#b0b0b6"/><path d="m49.73 116-4.56.08z" fill="#61616b"/><path d="m230.14 5.31c.42.75.84 1.5 1.25 2.25-.17-.27-.35-.54-.52-.82l-.7.55-.41-1.73z" fill="#61616b"/><path d="m4.48 124.53-.48 1.32-.45.06-1.55-.07z" fill="#a6a6ac"/><path d="m210.77 226a.39.39 0 0 1 .17-.14l.58-.16h.9l.8 1h-2.45z" fill="#b0b0b6"/><path d="m65.6 38.71-1.91 2 2-3z" fill="#b0b0b6"/><path d="m56.44 191.05.36-2.75h.39l-.3 3.27z" fill="#a6a6ac"/><path d="m28.52 116-3.09.68c0-.21 0-.41 0-.62z" fill="#a6a6ac"/><path d="m27.71 133h3.29l-3.35.52z" fill="#a6a6ac"/><path d="m72.59 232.2.28 1h-1.21l-.91-.75z" fill="#61616b"/><path d="m56.05 103.29h1.39a2.41 2.41 0 0 0 .08.25l-.52 1.39-.16.24-.58.22z" fill="#a6a6ac"/><path d="m232.75 169.32v.38l-.09 5.2-.15-5.57z" fill="#a6a6ac"/><path d="m234 113.38c-.35-.75-.69-1.5-1-2.24.32.74.66 1.49 1 2.24z" fill="#a6a6ac"/><path d="m231.68 169.08c0-1.17-.08-2.35-.13-3.52.05 1.17.09 2.35.13 3.52z" fill="#151524"/><path d="m57.61 189.68.59 1.12-.28.84-.71.55z" fill="#a6a6ac"/><path d="m7.3 124-.56.17c-.18-.58-.37-1.17-.56-1.75z" fill="#b0b0b6"/><path d="m112.58 229.63 2-.64v.53z" fill="#61616b"/><path d="m128.38 4.33-3.88-.46c.06 0 .13-.1.18-.09l3.7.37a.54.54 0 0 1 0 .18z" fill="#b0b0b6"/><path d="m234.37 173.58c0-1.47 0-2.94 0-4.41.1 1.47.21 2.94.31 4.41z" fill="#b0b0b6"/><path d="m221.77 5.27v.86h-.11l-.07-.09-1.91-.34z" fill="#b0b0b6"/><path d="m232.44 61.18.46-3z" fill="#61616b"/><path d="m209.3 226.54-1.58-.39 2.28-.15v.48z" fill="#61616b"/><path d="m226.91 2-1 .25c.25-.44.5-.88.74-1.33z" fill="#b0b0b6"/><path d="m232 77.91c0-.58-.06-1.16-.1-1.74l.46.11z" fill="#61616b"/><path d="m216.74 225.59 1.85.12z" fill="#b0b0b6"/><path d="m24.22 133.37 2 .06-2.5.46z" fill="#a6a6ac"/><path d="m24.22 133.37-.5.52-1.18.1-.06-.47z" fill="#61616b"/><path d="m231.4 2.88.35-.93a5.7 5.7 0 0 1 .25.94 2.93 2.93 0 0 1 -.15.76z" fill="#b0b0b6"/><path d="m144.84 227.42-3.4.27a1.46 1.46 0 0 1 .34-.1l3.08-.23z" fill="#b0b0b6"/><path d="m120.63 3.67v-.1l3.11.17z" fill="#a6a6ac"/><path d="m57 104.93.56-1.37h.44l.23 1.12h-.43z" fill="#b0b0b6"/><path d="m56.22 105.39.58-.22c-.1.72-.19 1.44-.29 2.16z" fill="#b0b0b6"/><path d="m39.54 132.12-1.09.63h-1.16z" fill="#61616b"/><path d="m68.39 12.68.79.15c-.19.49-.38 1-.58 1.48z" fill="#61616b"/><path d="m73.86 7.28.6-.66 1.54 1.32-.57.19-1.51-.3z" fill="#a6a6ac"/><path d="m9.48 131.17.73 1.12-1.57-1a1.74 1.74 0 0 1 .11-.18z" fill="#b0b0b6"/><path d="m56.69 230c0 .65.07 1.31.11 2-.04-.68-.07-1.34-.11-2z" fill="#61616b"/><path d="m237.39 121.64.86.19a2.26 2.26 0 0 1 -.72.21 3.72 3.72 0 0 1 -.9-.27z" fill="#b0b0b6"/><path d="m232.05 182.69-.12-2.13z" fill="#a6a6ac"/><path d="m233.83 124.4v-.57l1.62.25z" fill="#b0b0b6"/><path d="m56.47 185.57-.22.68a3.3 3.3 0 0 1 -.22-.74 2.76 2.76 0 0 1 .11-.69z" fill="#b0b0b6"/><path d="m57 141.15c-.07.57-.14 1.13-.22 1.7 0-.67 0-1.34-.07-2z" fill="#b0b0b6"/><path d="m31.26 116-1.79.08z" fill="#61616b"/><path d="m107.23 3.78-1-.23a1.61 1.61 0 0 1 .57-.17c.52 0 1 .14 1.54.22z" fill="#b0b0b6"/><path d="m109.84 229.86 1.78-.17z" fill="#61616b"/><path d="m231.44 161.6c-.08-.59-.16-1.17-.23-1.76h.1.11z" fill="#151524"/><path d="m219.27 7.74-1.74-.06z" fill="#b0b0b6"/><path d="m61.38 236.1.92 1.05z" fill="#b0b0b6"/><path d="m233.46 84.25-.05 1.07c-.08-.51-.17-1-.23-1.53 0-.11.09-.23.14-.35z" fill="#b0b0b6"/><path d="m224 227.21.29-1 .48.74-.22.6z" fill="#b0b0b6"/><path d="m228.37 5.31c0-.48.09-1 .14-1.45.2.32.41.63.61.94z" fill="#61616b"/><path d="m54.51 133.15a.31.31 0 0 0 -.06.21l-.63.07h-1.62z" fill="#a6a6ac"/><path d="m232.51 186.56.33-1.87s.14.08.13.11c-.15.59-.31 1.17-.47 1.76z" fill="#b0b0b6"/><path d="m32.22 132.9 1.55-.17z" fill="#a6a6ac"/><path d="m55.64 108.81.32-.45a1.84 1.84 0 0 1 .14.56 1.79 1.79 0 0 1 -.18.52z" fill="#b0b0b6"/><path d="m109.68 4.06-1.56.41z" fill="#b0b0b6"/><path d="m57 141.15-.29-.3v-.73l.21-.66v-.6c.11.76.21 1.52.31 2.28h-.1z" fill="#a6a6ac"/><path d="m2 125.84 1.58.07-1.58.23a1.54 1.54 0 0 1 0-.14s0-.12 0-.16z" fill="#61616b"/><path d="m225.31 226.34 1.14.13h-1a.09.09 0 0 1 -.14-.13z" fill="#b0b0b6"/><path d="m35.46 115.92-1.23.06z" fill="#61616b"/><path d="m131.49 4.67-.2-.49a1.8 1.8 0 0 1 .54-.14c.11 0 .23.14.34.22z" fill="#b0b0b6"/><path d="m77.26 7.88-1.09.12z" fill="#a6a6ac"/><path d="m56.44 191.05.45.52v.93h-.37z" fill="#61616b"/><path d="m144.84 227.42v-.06h2.06s0 0 0 0z" fill="#a6a6ac"/><path d="m63.69 40.72-.6 1.28z" fill="#b0b0b6"/><path d="m61.67 47.17c-.1.43-.2.86-.29 1.3.1-.47.19-.87.29-1.3z" fill="#b0b0b6"/><path d="m231.42 159.86h-.11-.1v-1.27l.22-.14z" fill="#b0b0b6"/><path d="m234.37 173.58h.32v1.75z" fill="#a6a6ac"/><path d="m114.64 229.52v-.53h1.24z" fill="#a6a6ac"/><path d="m233.49 210.52.1-.62a5.71 5.71 0 0 1 .38.84c0 .11-.08.26-.12.4z" fill="#b0b0b6"/><path d="m65.28 26.26v1.18z" fill="#b0b0b6"/><path d="m232.32 76.28-.46-.11v-.48l.3-.77c.07.46.12.91.16 1.36z" fill="#b0b0b6"/><path d="m57.77 80.57.39 1.36z" fill="#b0b0b6"/><path d="m235.51 120.12h.26l-.15 2c-.04-.69-.07-1.34-.11-2z" fill="#b0b0b6"/><path d="m66.21 22c0 .25.07.51.1.76h-.42z" fill="#a6a6ac"/><path d="m236 115.62-1-.74z" fill="#b0b0b6"/><path d="m210 226.44v-.44h.74v.68z" fill="#a6a6ac"/><path d="m116.14 228.78 1-.52z" fill="#61616b"/><path d="m25.45 116v.62h-.45l.07-.55z" fill="#61616b"/><path d="m56.38 172.79-.11 1z" fill="#a6a6ac"/><path d="m128.38 4.33a.54.54 0 0 0 0-.18h.91v.23z" fill="#a6a6ac"/><path d="m57.76 104.65h.43l-.28 1h-.35z" fill="#61616b"/><path d="m56.63 143.56c0 .37-.08.75-.11 1.12.03-.37.07-.75.11-1.12z" fill="#b0b0b6"/><path d="m214.53 225.23 1.05.13z" fill="#61616b"/><path d="m56.49 145v1.17z" fill="#b0b0b6"/><path d="m58.2 195.88-.36.13.19-.95z" fill="#151524"/><path d="m55.72 188.22c0 .19-.09.38-.13.57a1.78 1.78 0 0 1 -.14-.5 5 5 0 0 1 .13-.65c.05.19.09.36.14.58z" fill="#b0b0b6"/><path d="m234 164.48.16-.59a5.85 5.85 0 0 1 .12.71 1.78 1.78 0 0 1 -.08.45z" fill="#b0b0b6"/><path d="m234.27 212.9a3.53 3.53 0 0 1 .15.58s-.16.09-.24.13a1.07 1.07 0 0 1 -.11-.33c0-.08.08-.16.2-.38z" fill="#b0b0b6"/><path d="m27.71 133v.51h-.45v-.46z" fill="#61616b"/><path d="m65.89 22.7h.42l.06.5h-.59c.04-.14.07-.32.11-.5z" fill="#b0b0b6"/><path d="m57.56 105.63h.35v.46l-.41.16z" fill="#b0b0b6"/><path d="m232.05 223.85c.12-.29.24-.58.35-.87-.11.29-.23.58-.35.87z" fill="#b0b0b6"/><path d="m72.05 8h.58l.15.34h-.92z" fill="#a6a6ac"/><path d="m235 5.66-.41-.27.76.07z" fill="#b0b0b6"/><path d="m234 188.15-.18.45a3.06 3.06 0 0 1 -.11-.59 1.6 1.6 0 0 1 .14-.44z" fill="#b0b0b6"/><path d="m231.43 158.43-.22.14v-.48l.23.17a1 1 0 0 1 -.01.17z" fill="#151524"/><path d="m232.36 140.11.08-.76z" fill="#b0b0b6"/><path d="m27.22 133.1v.46l-.54-.13z" fill="#a6a6ac"/><path d="m234 122.38v-.77l.45.45z" fill="#b0b0b6"/><path d="m232 216.27v-.64h.61l.12.62z" fill="#a6a6ac"/><path d="m205.55 226.39v.51l-.37.08a.24.24 0 0 1 -.13-.15v-.44z" fill="#a6a6ac"/><path d="m235.06 135.23c0-.33 0-.67 0-1 .01.33.01.67 0 1z" fill="#b0b0b6"/><path d="m232.75 169.32h-.21l.09-1.21z" fill="#b0b0b6"/><path d="m221.24 7-.47.76z" fill="#b0b0b6"/><path d="m6.92 130.69.58.42z" fill="#b0b0b6"/><path d="m57.19 188.3h-.39l.31-1.07z" fill="#61616b"/><path d="m235 136.84v-.48z" fill="#b0b0b6"/><path d="m5.56 124.25-.67.17z" fill="#a6a6ac"/><path d="m53.82 133.43.63-.07a.14.14 0 0 1 0 .18z" fill="#b0b0b6"/><path d="m230.94 216.87.67-.18z" fill="#a6a6ac"/><path d="m56.86 139.46-.21.66z" fill="#b0b0b6"/><path d="m231.44 158.26-.23-.17v-.51l.33-.15z" fill="#b0b0b6"/><path d="m235.22 133.35.06-.5z" fill="#b0b0b6"/><path d="m233.47 87.66c0 .08 0 .15-.05.22a.74.74 0 0 1 -.11-.24s.05-.12.07-.18z" fill="#b0b0b6"/><path d="m233.77 100.93c.09-.34.17-.69.26-1z" fill="#a6a6ac"/><path d="m119.33 228.18h.67l-.4.09z" fill="#a6a6ac"/><path d="m57 202.54c0 .2-.07.39-.1.59-.01-.2.03-.39.1-.59z" fill="#b0b0b6"/><path d="m233.44 86.52-.1.09a.4.4 0 0 1 0-.11s0-.06.06-.09a.76.76 0 0 0 .04.11z" fill="#b0b0b6"/><path d="m56.82 215.83c0-.06-.1-.12-.1-.19s.06-.12.1-.18.1.12.1.18-.06.13-.1.19z" fill="#b0b0b6"/><path d="m109.57 3.74-.2-.09a.7.7 0 0 1 .21-.14s.12.07.18.11z" fill="#b0b0b6"/><path d="m205.18 227v.2z" fill="#b0b0b6"/><path d="m234.15 212.37h-.07a.35.35 0 0 1 0-.11s.07 0 .07 0a.38.38 0 0 1 0 .11z" fill="#b0b0b6"/><path d="m232.75 216.28.16.14-.1.06v-.22z" fill="#a6a6ac"/><path d="m9.48 131.17-.73-.07-.75-1.21 2 1z" fill="#61616b"/><path d="m103.72 216.44 10.67-.72 2.91-.24h.32l3.21-.11h.52c.08.17.17.49.26.49q7.62 0 15.25-.1l13.48-.42h.76l1.74-.19 7.5.19h6l7.22-.29 2.24-.51 1-.06h.76 1.49l5.89-.16a5.24 5.24 0 0 0 1.26.26c6.38-.32 12.76-.62 19.13-1 2.17-.14 4.31-.57 6.46-.86l.68-3.53.08-1.35c0-1.05 0-2.09 0-3.14l.22-1.34c-.07-1.23-.16-2.47-.21-3.71 0-.65 0-1.3.07-2 .31.74.92 1.51.88 2.23-.33 5-.77 10.1-1.29 15.13 0 .32-1.09.74-1.68.74-8.16 0-16.33-.09-24.48.08-6.11.12-12.21.56-18.3 1-4.26.3-8.51 1.2-12.75 1.16-12.16-.13-24.32-.61-36.48-.91-3.38-.09-6.75 0-10.13 0a3.2 3.2 0 0 0 -.78.2c.73.18 1.47.31 2.18.53.92.29 1.82.63 2.73.95a14.86 14.86 0 0 1 -2.71.29c-4.67-.39-9.34-.87-14-1.32z" fill="#151524"/><path d="m169.09 125.5-4.5-.13h-.68-.62l-.46-.4c3.85-.3 7.7-.65 11.56-.89 7.55-.45 15.1-.84 22.65-1.28.33 0 .63-.33 1-.5-.33-.16-.66-.45-1-.46-9-.21-18-.38-26.94-.6-.25 0-.5-.43-.75-.66a9.35 9.35 0 0 1 2.28-.47q18.71.75 37.41 1.59c1.85.09 3.7.41 5.54.6.71.08 1.42.11 2.13.16a18 18 0 0 1 -2.3.35c-4.32.11-8.63.18-13 .27-.51 0-1 .07-1.53.11l1.14.56-11.84 1-10.37 1-4.26-.22h-3.25zm30.06-3.4.17-.11s-.06-.07-.08-.07h-.2z" fill="#151524"/><path d="m123.42 112c-3.7.48-7.39 1.13-11.11 1.4-11.36.84-22.72 1.53-34.08 2.26a4.47 4.47 0 0 1 -1.32-.38l4.3-1.24 3.41-.66.73-.5.72-.11.92-.16 3.67-.4.82-.14.91-.06h24.75l3.74-.21 2.49.14z" fill="#151524"/><path d="m191.81 108.22h.47v.27h2.12l1.7-.09 1.23.2c6.38.37 12.76.75 19.15 1.09 1.28.07 2.57 0 3.86 0l-3-1 .31-.75a26.42 26.42 0 0 1 4.19.3c.79.18 1.37 1.13 2.16 1.46.94.39 2.05.36 3 .76a11.27 11.27 0 0 1 2 1.54l-2.75-.16q-18.14-1.25-36.27-2.51c-.16 0-.31-.23-.46-.35l1.83-.49z" fill="#151524"/><path d="m116.64 128.8-2.75-.15-6.25-.29c7.81-.58 15.63-1.18 23.45-1.74 3.83-.27 7.68-.47 11.52-.7l-5.8 1.34h-.95l-3.29.68-1 .09-1.54.14-1.46.07-.8.1-2.2.16-4.28.21h-3.47z" fill="#151524"/><path d="m211.11 159.37v-2c.14-1.71.34-3.43.41-5.15 0-1.25-.05-2.51-.09-3.77-.15 1-.31 2-.47 3l-.35-.05-.54-5 .12-2.42c.12-.94.24-1.88.37-2.82h.44l-.2 2.32c.3-.34.81-.66.85-1a6 6 0 0 0 -.3-1.78l1.15-.51q-.31 12.53-.65 25l-.56-3.86c-.05-.69-.12-1.33-.18-1.96z" fill="#a6a6ac"/><path d="m146.42 108 1.32-.21c.3.15.6.42.9.43 5.81.2 11.61.37 17.42.55l2.76.19-33 .46 8.53-.94z" fill="#151524"/><path d="m75.63 105.16c.09 2.91.19 5.82.28 8.73v1.25c-.49-.22-1.4-.43-1.4-.64 0-7.37.15-14.75.27-22.12 0-.08.26-.15.4-.23h.22c-.07 1.49-.13 3-.2 4.49v3.26l.1 1.69.6-.89-.22 1.93c-.25.26-.74.56-.7.77a9.05 9.05 0 0 0 .65 1.76z" fill="#151524"/><path d="m197.29 108.58-1.23-.2-1.21-.47-2.39-.65c1 0 1.95-.11 2.93-.08 5 .16 10 .08 14.9.6 3.52.38 4.65-1 4.51-4.14.33 1.31.65 2.63 1 3.94l.24.1.25.92-.46.07c-.91 0-1.82 0-2.73 0z" fill="#b0b0b6"/><path d="m136.81 127.26 5.8-1.34h1.48l3.32-.23 1.43.09 4.25-.38h4.25l2.59-.44 2.9.1.46.4-1.47.7a3.59 3.59 0 0 0 .62.31c.06 0 .19-.16.28-.24-.8-.06-1.6-.17-2.4-.16a5.27 5.27 0 0 0 -1.26.31l-8 .18-.79.11h-1.94l-4.26.25-1.15.15-.85.09h-.49l-4.43.32z" fill="#61616b"/><path d="m75.21 132.18c1.4-7 6.85-3.47 10.7-4.1a15 15 0 0 1 -2 1.17c-2.26.95-4.55 1.83-6.82 2.74v.08l-.94.08z" fill="#151524"/><path d="m103.72 216.44-7.93 1.25h-.78l-1.36-.37.4.39-6.13-.15z" fill="#61616b"/><path d="m189.19 124.78 11.84-1 2.81.19-16.77 2.3z" fill="#a6a6ac"/><path d="m75.21 132.18h1v.76c0 3.74 0 7.48-.08 11.23v.46l.22 3.34.47 1.69-.12.88c-.36.61-.71 1.22-1.06 1.83q-.2-10.11-.43-20.19z" fill="#61616b"/><path d="m77.14 132c2.27-.91 4.56-1.79 6.82-2.74a15 15 0 0 0 2-1.17l.74-.05 2 .45-.26.14-1.23 1.07h-.72l-2.31.9-2.77.94z" fill="#61616b"/><path d="m76.62 152.6-.15 15.34-.31.38c-.08.17-.16.35-.23.53h-.26q0-8 0-16z" fill="#61616b"/><path d="m107.64 128.36 6.25.29-6.25.45h-2.25l-13 .25a1.93 1.93 0 0 1 0-.24l2.74-.56z" fill="#a6a6ac"/><path d="m76.06 178.06.12 1.5s-.07.05-.07.07a1.09 1.09 0 0 0 .08.15v1.08l.11 1.2v.47l-.31 1-.1 3-.18 4.52v.49l-.08.76-.13 3c0 1.41-.09 2.83-.14 4.24h-.45q.56-10.75 1.15-21.48z" fill="#151524"/><path d="m78.16 218.1h.51c.06.11.1.27.19.31 1.33.68 2.67 1.33 4 2-.15.07-.33.23-.45.2-2.78-.84-5.55-1.7-8.33-2.55h1.34l2 .09z" fill="#151524"/><path d="m57.76 145.85c.4-2.49.79-5 1.19-7.47l.6 12.2c-.24-.51-.47-1-.7-1.53l.12-.59-.11-2.37-.3 1.24-.78-.79z" fill="#151524"/><path d="m59 213.51-.33-1.73-.19-.79c-.28-1.29-.57-2.57-.86-3.86.23-1.78.46-3.57.68-5.35q.49 5.86 1 11.74z" fill="#151524"/><path d="m231.69 201.53c-.07 1.45-.14 2.9-.18 4.36 0 .21.17.43.27.65v.49l-.26 1.13c-.41-.29-1.18-.59-1.18-.88 0-2 .17-4 .26-6 0-.44 0-.89 0-1.33l.72.87z" fill="#151524"/><path d="m75.43 218h-1.34v-1.28l.11-1.49c.1-1.24.2-2.49.29-3.73 0-.59.09-1.17.13-1.76l-.08-.53v.06h.06l.65-.06h.76z" fill="#b0b0b6"/><path d="m209.62 190.07.09-1.14c.4.44.81.87 1.21 1.3l-.12 6.77c-.27-.8-.55-1.6-.82-2.39l-.17 2.9-.24-6.92.34-.26z" fill="#61616b"/><path d="m191.81 108.22-.43.3-2.39.24-11.17.07z" fill="#a6a6ac"/><path d="m212.05 169.32-.27 11.87-.54.13v-1.21c.1-1.1.2-2.2.31-3.3 0-.49 0-1 0-1.47l-.54-3.27c.35-.92.7-1.83 1.04-2.75z" fill="#a6a6ac"/><path d="m58.85 149.05c.23.51.46 1 .7 1.53q-.31 3.87-.61 7.76l-.94-1.88.2-6.19z" fill="#a6a6ac"/><path d="m211.65 133.85.69-2.73 1.19-.5v2c-.09.82-.19 1.64-.29 2.46s-.22 1.69-.34 2.53c-.07.29-.14.58-.22.87l-.38-.13v-.6l-.39-.65v-1.51l.17-1.76h-.36z" fill="#a6a6ac"/><path d="m168.82 108.92-2.76-.19v-.68c2.53 0 5.06-.08 7.59 0 .23 0 .44.59.66.9z" fill="#b0b0b6"/><path d="m232.69 21q.26 4.61.53 9.21-.22-4.61-.53-9.21z" fill="#151524"/><path d="m215.91 209.8-.62 3.16c-.26-.36-.76-.75-.72-1.08.27-2 .66-4.08 1-6.12z" fill="#151524"/><path d="m231.41 65.41v9.77c-.27-3.22-.55-6.45-.79-9.67-.03-.01.51-.06.79-.1z" fill="#151524"/><path d="m212 133.83c0 .59-.11 1.18-.17 1.76-.18 1.17-.37 2.33-.54 3.5 0 .07 0 .15.08.23l.29-1 .61.1.33 1-.09.75-1.15.51c-.05-.14-.1-.29-.16-.44l-.19.94h-.45q.54-3.63 1.09-7.26z" fill="#b0b0b6"/><path d="m211.24 180.11v1.21l-.12 2.1.77-.61c-.24 1.33-.48 2.67-.73 4l-.6-2c.23-1.6.44-3.15.68-4.7z" fill="#151524"/><path d="m210.56 184.77.6 2-.24 3.42c-.4-.43-.81-.86-1.21-1.3l.27-2.12z" fill="#a6a6ac"/><path d="m76.09 209.27h-.76l-.72-.62c0-.68.1-1.35.14-2l1.12-2.08z" fill="#a6a6ac"/><path d="m209.81 197.5.17-2.9c.27.79.55 1.59.82 2.39-.09.53-.19 1.05-.29 1.57v.72l-.27.75h-.37z" fill="#151524"/><path d="m127.63 110.32 1 .07-5.2 1.56v-.06l.29-.41 2-.37z" fill="#151524"/><path d="m75.92 115.14v-1.25l.46.3 1.27-.09h1.48l2.09-.08-4.3 1.24z" fill="#61616b"/><path d="m83.16 126.82-1.62-.76a5.49 5.49 0 0 1 1.67-.4 7.54 7.54 0 0 1 1.82.62z" fill="#151524"/><path d="m28.23 122.59-.93-.53c.28-.34.57-1 .84-1a6.82 6.82 0 0 1 1.79.55z" fill="#151524"/><path d="m88.67 128.48-2-.45 4.76.31z" fill="#151524"/><path d="m210.06 204.26-.21-2.25h.58c.09-.66.19-1.31.29-2l.09-.28.49.22v.81.74l.05 1.25z" fill="#61616b"/><path d="m76.33 171.32v3.81l-.06.06v.07l-.28 2.06z" fill="#151524"/><path d="m58 156.46.91 1.88c0 .94-.07 1.88-.1 2.82l-.26-.07c-.12-.75-.25-1.5-.37-2.25v-.51l-.13-1z" fill="#61616b"/><path d="m53.19 116.13h1l3.8-.4-4.76.72z" fill="#151524"/><path d="m74.85 199.53h1.28v1.44l-1.06.31z" fill="#61616b"/><path d="m153.09 125.36-4.25.38z" fill="#151524"/><path d="m76.62 152.6-.93.23v-.49c.35-.61.7-1.22 1.06-1.83z" fill="#a6a6ac"/><path d="m231.75 91.91v4.23z" fill="#151524"/><path d="m214 126.1.2-.51c-.13 1.42-.27 2.85-.41 4.27v-2.49z" fill="#151524"/><path d="m211.19 168 .6-.33.26.46v1.24c-.34.92-.69 1.83-1 2.75.03-1.42.09-2.8.14-4.12z" fill="#b0b0b6"/><path d="m75.87 204.5-1.12 2.08-.15-2.07c0-.24 0-.48.05-.72h.25l.77-1 .3.29z" fill="#61616b"/><path d="m211.43 206.91v-2.38h.49.07.07z" fill="#151524"/><path d="m211.89 182.81-.77.61.12-2.1.54-.13c.04.54.08 1.08.11 1.62z" fill="#61616b"/><path d="m76 203.07-.3-.29-.63-.5c0-.34 0-.67 0-1l1.06-.31c-.08.71-.13 1.4-.13 2.1z" fill="#b0b0b6"/><path d="m147.41 125.65-3.32.23z" fill="#151524"/><path d="m210.06 204.26 1.27-1.47-.05 1.25-.29.29-.2.2-.67 1.26z" fill="#b0b0b6"/><path d="m159.93 124.92-2.59.44z" fill="#151524"/><path d="m213.53 130.62-1.19.5 1.28-1.32.12.8a.31.31 0 0 0 -.21.02z" fill="#b0b0b6"/><path d="m211.3 200-.49-.22c0-.15 0-.31-.05-.46v-.78l.08-1.24z" fill="#151524"/><path d="m212.87 137.61c.12-.84.23-1.68.34-2.53-.11.85-.21 1.69-.34 2.53z" fill="#151524"/><path d="m58.58 161.09.26.07-.09 2.39h-.31z" fill="#151524"/><path d="m216.27 108.6-.25-.92 1.55.2-.31.75-.54.05z" fill="#a6a6ac"/><path d="m68 22.69c.13-.91.27-1.81.4-2.71-.1.9-.24 1.8-.4 2.71z" fill="#151524"/><path d="m189 108.76 2.39-.24-1.83.49z" fill="#61616b"/><path d="m231.74 99.16-.29.21c.07-.66.14-1.32.22-2z" fill="#151524"/><path d="m213.53 130.62a.31.31 0 0 1 .21 0l-.24 2z" fill="#151524"/><path d="m213 124.66-.34 1.54-.29-.08.58-1.68h.06z" fill="#b0b0b6"/><path d="m74.25 215.27-.11 1.49z" fill="#151524"/><path d="m231.5 208.16.26-1.13-.14 1a.14.14 0 0 1 -.12.13z" fill="#61616b"/><path d="m75.67 202.78-.77 1v-1h.74z" fill="#a6a6ac"/><path d="m233.17 31c-.07.5-.13 1-.2 1.49.03-.49.13-1.03.2-1.49z" fill="#151524"/><path d="m231.38 101.89-.18 1.48z" fill="#151524"/><path d="m74.61 208.61.72.62-.65.06z" fill="#61616b"/><path d="m165.58 224.81h-1.26z" fill="#151524"/><path d="m175.32 108.86h1.24z" fill="#a6a6ac"/><path d="m94.05 217.74-.4-.39 1.36.37z" fill="#151524"/><path d="m212.74 203.3c-.07.45-.14.89-.22 1.34l-.46-.1h-.07-.07l.1-.52.47-.79z" fill="#61616b"/><path d="m74.54 211.54-.12-1.26a.42.42 0 0 0 .18-.11z" fill="#a6a6ac"/><path d="m53.19 116.13v.28h-1v-.26z" fill="#61616b"/><path d="m231.46 199.81c.07.33.13.66.2 1h-.4z" fill="#151524"/><path d="m75.77 83.91-.12 1z" fill="#151524"/><path d="m74.6 210.17a.42.42 0 0 1 -.18.11l.17-1 .08.53z" fill="#151524"/><path d="m210.84 197.29-.08 1.24h-.26l.29-1.57z" fill="#a6a6ac"/><path d="m212.49 203.23-.49.77z" fill="#151524"/><path d="m212.6 139.35-.33-1 .38.13c-.01.29-.03.58-.05.87z" fill="#61616b"/><path d="m209.12 124h-1.11z" fill="#a6a6ac"/><path d="m34.33 129.09-.22-.27c.1-.06.19-.16.29-.17s.21.06.31.1z" fill="#151524"/><path d="m75.47 86.9v.76z" fill="#151524"/><path d="m74.65 203.79c0 .24 0 .48-.05.72.02-.24.03-.51.05-.72z" fill="#151524"/><path d="m59 213.51h.28v.5l-.48.28-.13-.28z" fill="#61616b"/><path d="m212.05 168.08-.26-.46.21-.29z" fill="#a6a6ac"/><path d="m75.69 202.8h-.69l.11-.51z" fill="#61616b"/><path d="m230.06 210.38-.2.36a1.56 1.56 0 0 1 -.09-.34 1 1 0 0 1 .1-.34z" fill="#151524"/><path d="m213 124.66v-.26l.56.09z" fill="#a6a6ac"/><path d="m58.91 136.66-.15-.52z" fill="#151524"/><path d="m231.69 198.8-.17.73v-.73z" fill="#b0b0b6"/><path d="m76.36 81h-.07-.07l-.06-.78z" fill="#a6a6ac"/><path d="m75.67 168.83h.26l-.14.28z" fill="#151524"/><path d="m76.16 168.32.31-.38v.38z" fill="#151524"/><path d="m164.32 6.11 3.25.1a65.85 65.85 0 0 1 -6.65 1c-8.06.43-16.13.71-24.2 1.06-.26 0-.51.25-.77.38a4.08 4.08 0 0 0 .83.17l33.47-.56c.2 0 .4.17.6.26l-1.51.23-3.8.52c1.21.07 2.42.18 3.63.23q17.51.63 35 1.27c.34 0 .66.33 1 .5-.8.74-1.56 2.07-2.4 2.13-4.24.3-8.5.14-12.74.37-10.72.59-21.43 1.46-32.16 2-15.83.71-31.68 1.38-47.52 1.7-8.13.16-16.27-.45-24.4-.79-.5 0-1-.73-1.45-1.12.29-.3.52-.74.87-.87 2.2-.84 4.42-1.61 6.63-2.41a1.63 1.63 0 0 0 .42-.3c-.27-.06-.53-.14-.8-.18l-2.78-.33c1-.59 1.91-1.6 2.93-1.68 11.77-1 23.55-1.85 35.33-2.73 5.9-.51 11.9-.93 17.77-1.36h1.22l.5.11h1l2-.06zm-71.11 4.07-.38.28c.15.09.3.25.45.25s.3-.16.45-.25z" fill="#0b0b1a"/><path d="m80 55.58c.09 5 .23 10 .24 15.06a11.4 11.4 0 0 1 -.77 2.88l-.63-3.59v-1.26l.12-1.08.15-1.91c0-.53.09-1.06.14-1.59s0-.89 0-1.34.11-1.1.16-1.65l.15-2.42.06-1z" fill="#b0b0b6"/><path d="m142 19.84-.43-.14c3.22-.43 6.42-1.11 9.65-1.22 5.7-.18 11.4 0 17.11 0l-1.27.47h-5.25-.75-1.23l-12.04 1.35-1-.06 4.45-.4c-1.81 0-3.62-.08-5.42-.09-1.24 0-2.52.06-3.82.09z" fill="#61616b"/><path d="m215.1 92.07-.93-10.32c.07.16.15.33.22.5v-.66c.07-2 .12-4 .2-6 0-.13.18-.26.27-.38 0 .33.07.66.12 1 .25 1.83.51 3.65.76 5.48q-.33 5.17-.64 10.38z" fill="#b0b0b6"/><path d="m82.14 22q-.47 5.16-.94 10.32c0-3.84-.77-7.94.41-11.37.37-1.09 5.89-.42 9.06-.56-.39.09-.78.18-1.18.25z" fill="#61616b"/><path d="m97.16 21 1.24-.26h2.49l7.47-.73 12-.1v.36l-12.45.85-.53.11h-.48-1l-5 .12-3.75-.14a.45.45 0 0 1 .01-.21z" fill="#61616b"/><path d="m137.62 19.94-15 .85v-.48l.36-.37 14.42-.58.27.41a1 1 0 0 1 -.05.17z" fill="#61616b"/><path d="m82.14 22 7.35-1.36c.4-.07.79-.16 1.18-.25l1.7.08c-1.75.44-3.53 1.34-5.24 1.22-6.85-.46-3.53 4.79-4.48 7.62a6 6 0 0 0 -.12 1.27 11.23 11.23 0 0 1 -.2-1.4c-.08-2.44-.13-4.84-.19-7.18z" fill="#b0b0b6"/><path d="m209.34 16.42-7-.92c-.1 0-.19-.12-.28-.18a1.42 1.42 0 0 1 .35-.11l16.15-.37a6 6 0 0 1 -1.18.42c-2.67.4-5.38.74-8.04 1.16z" fill="#61616b"/><path d="m75.41 92.18 1-10.53h.28l.2-.87.44-1-1.27 18.22-.4-.59c0-.27 0-.55 0-.82l-.22-4.39z" fill="#a6a6ac"/><path d="m232.93 7.52c.84.23 2.38.44 2.39.7a53.07 53.07 0 0 1 -.32 5.78c-.3-1.16-.61-2.32-.91-3.47.09-.23.19-.45.28-.67 0 0 .06.05.09.05a.21.21 0 0 0 .1 0h-.19l-.92-1.08-.45-.61z" fill="#a6a6ac"/><path d="m209.34 16.42c2.68-.38 5.37-.76 8.06-1.16a6 6 0 0 0 1.18-.42l.93 2.39-4.54.35c.2-.12.54-.2.59-.36a3.15 3.15 0 0 0 0-1l-4.78.19z" fill="#a6a6ac"/><path d="m213.07 19.52-1 .22-4-.07a4.9 4.9 0 0 0 .08-1.07 19.89 19.89 0 0 0 -2.18-.39 17.55 17.55 0 0 0 2.72-.09c.41-.07.68-.7 1.09-1 .19-.11.56.05.84.08z" fill="#61616b"/><path d="m215.76 81.31q-.48-6.44-1-12.88h.46l.54 2.27z" fill="#b0b0b6"/><path d="m217.81 41.23.24-8.27.21-2.49.3-1 .51-.21q-.36 5.93-.74 11.85s-.33.08-.52.12z" fill="#61616b"/><path d="m192.41 21-7.36-1.11 10 .87-1.7.24z" fill="#a6a6ac"/><path d="m208 19.67 4 .07-6.51 1.48-.43-1.65h.62l.58.49.22-.43z" fill="#a6a6ac"/><path d="m214.78 58.43 1.49-1.74-.27 7.24-.69-.15c-.14-.88-.27-1.77-.41-2.65l-.84-.47zm.57.62.07.05v-.1z" fill="#b0b0b6"/><path d="m205.1 19.57.43 1.65-4-.1.86-.85-2.5-.31zm-1.2 1.07h.1l-.09-.05h-.11z" fill="#61616b"/><path d="m99.4 20.72h-1l.27-.67 9.69-.07-7.47.73z" fill="#a6a6ac"/><path d="m210.78 16.44 4.78-.19a3.15 3.15 0 0 1 0 1c-.05.16-.39.24-.59.36l-.95.11-2.73-.47z" fill="#61616b"/><path d="m215.62 9.31-2.93-.31 7.48-.61c-.2.29-.39.82-.62.84-.94.14-1.9.08-3.93.08z" fill="#61616b"/><path d="m167.08 19 1.27-.47 5.77.93h-6.56z" fill="#a6a6ac"/><path d="m78.85 69.93.63 3.59-.33 2.65-1-.76v-.24c.14-1 .27-2.06.4-3.09 0-.22 0-.44 0-.67.06-.44.11-.89.17-1.33a.22.22 0 0 1 .13-.15z" fill="#a6a6ac"/><path d="m214.85 100.1.24-7.63z" fill="#b0b0b6"/><path d="m129.17 5.8 3.21-.64 5.22.45z" fill="#61616b"/><path d="m192.41 21h.94l1.7-.24 2.22.13v.39l-.21.22-.5.2c-1.39-.07-2.79-.14-4.18-.23-.44 0-.88-.09-1.33-.14z" fill="#b0b0b6"/><path d="m234.13 10.52c.3 1.15.61 2.31.91 3.47a.6.6 0 0 0 -.09.15l-1.11.16c.1-1.3.16-2.52.29-3.78z" fill="#61616b"/><path d="m216.37 54.7q.25-2.76.53-5.51-.27 2.75-.53 5.51z" fill="#b0b0b6"/><path d="m78.12 75.41 1 .76c-.29 1.81-.57 3.63-.85 5.44 0-1.73.11-3.46.13-5.19 0-.2-.24-.41-.37-.61z" fill="#b0b0b6"/><path d="m218 23.48.1-1.2 1.23-2.81v2.75c-.17.53-.33 1.05-.49 1.58h-.58z" fill="#61616b"/><path d="m217.09 47.4c-.28-.18-.8-.38-.79-.56 0-1 .22-2 .35-3.05l.79 1.13z" fill="#b0b0b6"/><path d="m216.06 64.2-.17 4-.61-.25.06-3.6z" fill="#b0b0b6"/><path d="m211.29 17.22 2.73.47-1 1.83-2.53-2.28z" fill="#a6a6ac"/><path d="m218.92 23.8c.16-.53.32-1.05.49-1.58l-.36 7-.51.21h-.35q.36-2.8.73-5.63z" fill="#a6a6ac"/><path d="m80.58 46.17c-.13 1.44-.25 2.89-.37 4.34.12-1.45.24-2.9.37-4.34z" fill="#61616b"/><path d="m219.36 19.47-1.23 2.81 1.29-4.59z" fill="#a6a6ac"/><path d="m78.48 72.08c-.13 1-.26 2.06-.4 3.09.14-1.03.27-2.06.4-3.09z" fill="#61616b"/><path d="m81.16 32.91-.08 2.79z" fill="#61616b"/><path d="m121.1 5.23 2 .55h-3.26c0-.08 0-.15 0-.22z" fill="#b0b0b6"/><path d="m226.71 5 1.49.31-.87.73z" fill="#a6a6ac"/><path d="m72.78 8.32-.15-.32 1.23-.7v.55z" fill="#61616b"/><path d="m122.94 19.94-.36.37-2.22-.06v-.36z" fill="#a6a6ac"/><path d="m79.23 64.09c0 .53-.09 1.06-.14 1.59.05-.53.09-1.06.14-1.59z" fill="#61616b"/><path d="m79.43 61.1c-.05.55-.11 1.1-.16 1.65.05-.55.11-1.1.16-1.65z" fill="#61616b"/><path d="m78.1 9.28v-1l.56.93z" fill="#a6a6ac"/><path d="m191.89 14.15.48.35a1.91 1.91 0 0 1 -.49.21c-.13 0-.27-.11-.41-.18z" fill="#0b0b1a"/><path d="m80.81 43.66-.16 1.34z" fill="#61616b"/><path d="m224.45 5.26 1-.25-.52 1.09z" fill="#a6a6ac"/><path d="m80.05 52.65-.05 1.35z" fill="#61616b"/><path d="m78.7 70.08c-.06.44-.11.89-.17 1.33.06-.41.11-.89.17-1.33z" fill="#61616b"/><path d="m137.63 19.77-.27-.41 2.28.09v.27z" fill="#b0b0b6"/><path d="m70.18 12.24.56-.94z" fill="#61616b"/><path d="m215.84 69.93v-1z" fill="#b0b0b6"/><path d="m179.06 19.72-1-.17z" fill="#a6a6ac"/><path d="m96.69 20.06-1 .11z" fill="#a6a6ac"/><path d="m79.64 57.69-.06 1z" fill="#61616b"/><path d="m119.89 5.52v.22l-2 .1z" fill="#a6a6ac"/><path d="m78.94 67.59-.12 1.08z" fill="#61616b"/><path d="m206.52 19.66-.22.43-.58-.49z" fill="#61616b"/><path d="m233 8.22.45.56-.5.33z" fill="#61616b"/><path d="m197.29 21.24v-.39l.76.2z" fill="#a6a6ac"/><path d="m93.4 20.18-.8.13z" fill="#61616b"/><path d="m181.07 19.74h-.78z" fill="#a6a6ac"/><path d="m217.64 43.5.12-.85z" fill="#61616b"/><path d="m230.17 7.29.7-.55z" fill="#a6a6ac"/><path d="m216.28 55.94-.3-.19.32-.29z" fill="#b0b0b6"/><path d="m101.14 7.44v-.09l.94.08z" fill="#a6a6ac"/><path d="m123.34 5.82.76.09z" fill="#b0b0b6"/><path d="m139.59 19.72v-.27l.39.16z" fill="#61616b"/><path d="m234.41 9.86h.19a.21.21 0 0 1 -.1 0s-.06 0-.09-.05z" fill="#61616b"/><path d="m21.3 133.52c-1.83-.21-3.67-.42-5.49-.66-.15 0-.27-.23-.41-.36l.59-.39 8.36-.47h1.76c-.46.17-.93.33-1.4.52z" fill="#61616b"/><path d="m11.57 132.06c-.22-.43-.44-.87-.65-1.31l5.08 1.36-3.51-.06z" fill="#61616b"/><path d="m42.71 131.67c1.36-.35 2.71-.78 4.09-1 .39-.06.88.49 1.33.76l-.92.39h-1z" fill="#0b0b1a"/><path d="m42.71 131.67 3.52.17a.24.24 0 0 0 -.06.23l-3.68.33h-.54l.59-.54a.28.28 0 0 0 .17-.19z" fill="#a6a6ac"/><path d="m22.21 119-1.39-.19c1.17-.15 2.33-.31 3.51-.44.13 0 .28.09.43.14z" fill="#0b0b1a"/><path d="m26.18 129.7.91.55c-.27.2-.54.56-.8.56s-.6-.33-.9-.51z" fill="#0b0b1a"/><path d="m42.55 131.83-.59.54-1.53-.46z" fill="#61616b"/><path d="m50.26 132.66-.07.46-1.49-.26v-.32z" fill="#a6a6ac"/><path d="m20.06 118.8c-.33.18-.45.29-.57.29a2.91 2.91 0 0 1 -.56-.11c.12-.11.22-.29.35-.32a3.07 3.07 0 0 1 .78.14z" fill="#0b0b1a"/><path d="m52.45 132.58h-1.54z" fill="#a6a6ac"/><path d="m16.24 119.43-.28-.26a1.48 1.48 0 0 1 .38-.23c.06 0 .16.12.24.18z" fill="#0b0b1a"/><path d="m16.49 117.73.55-.29z" fill="#61616b"/><path d="m46.17 132.07a.24.24 0 0 1 .06-.23h1z" fill="#61616b"/><path d="m42 132.36h.54a.21.21 0 0 1 0 .19z" fill="#61616b"/></g><path d="m10.37 120.27.02.06-.06-.01z" fill="#61616b"/><path d="m57.54 218.4 1.14-.88c-.22 2.25-.43 4.51-.65 6.77l-.58-4.16z" fill="#61616b" transform="translate(-.25 -.93)"/><path d="m100.88 229-5.44 1.48-3-.52a27.42 27.42 0 0 1 3.86-.96c1.51-.14 3.05 0 4.58 0z" fill="#61616b" transform="translate(-.25 -.93)"/><path d="m127.09 225.65.41.84-2.93.22c0-.16-.08-.44-.15-.45-1.15-.19-2.31-.35-3.46-.52z" fill="#61616b" transform="translate(-.25 -.93)"/><path d="m137.43 226.16-2.82.19-1.09-.51 4.56-.34z" fill="#61616b" transform="translate(-.25 -.93)"/><path d="m68.35 231.5c-.29.2-.56.53-.78.5a4.52 4.52 0 0 1 -1.16-.5l1.15-1.5z" fill="#61616b" transform="translate(-.25 -.93)"/><path d="m153.32 226.2-4.89.56c-.08 0-.17-.15-.26-.24l3.23-.39z" fill="#b0b0b6" transform="translate(-.25 -.93)"/><path d="m75.45 230.73 4.4-.23c.09 0 .19.14.29.21-.45 0-.89.1-1.33.13l-3.28.22c-.03-.06-.05-.22-.08-.33z" fill="#61616b" transform="translate(-.25 -.93)"/><path d="m75.45 230.73c0 .11 0 .22.08.33l-.57.26-2.12.32z" fill="#a6a6ac" transform="translate(-.25 -.93)"/><path d="m72.84 231.64 2.12-.32-.51.38-1.65.38c.02-.15.03-.29.04-.44z" fill="#61616b" transform="translate(-.25 -.93)"/><path d="m81 231.55-1.59-.3z" fill="#61616b" transform="translate(-.25 -.93)"/><path d="m123.87 226.71h-1z" fill="#61616b" transform="translate(-.25 -.93)"/><path d="m130.2 225.88-.84-.15z" fill="#61616b" transform="translate(-.25 -.93)"/><path d="m58.76 217c0-.26.09-.51.14-.77-.05.28-.1.53-.14.77z" fill="#61616b" transform="translate(-.25 -.93)"/><path d="m58.7 214 .12.28-.06 1.26z" fill="#b0b0b6" transform="translate(-.25 -.93)"/><path d="m71.68 230.85c.17.24.31.35.31.47s-.15.24-.23.36c-.11-.11-.28-.19-.32-.32s.11-.25.24-.51z" fill="#61616b" transform="translate(-.25 -.93)"/><path d="m60 67.72c.47-2.17.94-4.33 1.42-6.5 0 1 0 1.9.05 2.85q-.74 7.16-1.47 14.32c0 .09-.17.16-.26.23 0-.45-.08-.9-.07-1.34.08-3.19.2-6.37.33-9.56z" fill="#61616b" transform="translate(-.25 -.93)"/><path d="m63 50.49c.73-3 1.47-6 2.21-9-.75 2.99-1.49 5.99-2.21 9z" fill="#61616b" transform="translate(-.25 -.93)"/><path d="m57.22 91.23c.09-.85.18-1.69.26-2.53l1-.29c-.11 1.24-.22 2.48-.32 3.72z" fill="#a6a6ac" transform="translate(-.25 -.93)"/><path d="m61.45 64.07c0-.95 0-1.9-.05-2.85h.05.37z" fill="#a6a6ac" transform="translate(-.25 -.93)"/><path d="m62.33 55.63.36-1.69z" fill="#b0b0b6" transform="translate(-.25 -.93)"/><path d="m65.24 41.21c.05-.34.11-.68.17-1-.06.32-.12.66-.17 1z" fill="#61616b" transform="translate(-.25 -.93)"/><path d="m61.82 61.2h-.37l.21-1.76.05.05.13.68z" fill="#b0b0b6" transform="translate(-.25 -.93)"/><path d="m61.66 59.41c.16-.56.33-1.12.49-1.68l-.15 1.69h-.32z" fill="#b0b0b6" transform="translate(-.25 -.93)"/><path d="m62.29 57.17c-.08-.48-.17-1-.25-1.43.09.48.17.95.25 1.43z" fill="#b0b0b6" transform="translate(-.25 -.93)"/><path d="m61.71 59.46h.32c-.06.24-.13.48-.19.72-.04-.27-.09-.49-.13-.72z" fill="#a6a6ac" transform="translate(-.25 -.93)"/><path d="m231.41 221.2.1.34a5.66 5.66 0 0 1 -.58.2 1.25 1.25 0 0 1 -.11-.29z" fill="#61616b" transform="translate(-.25 -.93)"/><path d="m211.52 225.66-.58.16z" fill="#61616b" transform="translate(-.25 -.93)"/><path d="m233.52 121.64c-.34 1.27-.68 2.54-1 3.82v-3.84z" fill="#61616b" transform="translate(-.25 -.93)"/><path d="m233.52 121.64h-1c.14-.7.28-1.4.43-2.1l.55.12z" fill="#b0b0b6" transform="translate(-.25 -.93)"/><path d="m235.49 118.37.4.87c-.35.06-.75.25-1 .14s-.37-.52-.55-.79z" fill="#61616b" transform="translate(-.25 -.93)"/><path d="m234 115.39.71.81z" fill="#61616b" transform="translate(-.25 -.93)"/><path d="m234.74 116.4.93.55z" fill="#61616b" transform="translate(-.25 -.93)"/><path d="m233.49 119.64-.55-.12.36-.59z" fill="#61616b" transform="translate(-.25 -.93)"/><path d="m140.44 4.72.85.14a9.88 9.88 0 0 1 -1.08.11 3.1 3.1 0 0 1 -.74-.13z" fill="#a6a6ac" transform="translate(-.25 -.93)"/><path d="m144 4.81a3.17 3.17 0 0 1 -.48.17 2 2 0 0 1 -.35 0c.05-.06.09-.17.15-.17a3.94 3.94 0 0 1 .68 0z" fill="#a6a6ac" transform="translate(-.25 -.93)"/><path d="m61.88 53.24c0-.31.07-.62.11-.93.01.31-.08.62-.11.93z" fill="#61616b" transform="translate(-.25 -.93)"/><path d="m101.83 6 1.32.48h-.52l-1-.51h.1z" fill="#a6a6ac" transform="translate(-.25 -.93)"/><path d="m58 156.46v.84s.09.69.13 1v.51q-.26 2.86-.49 5.75l-.21 1.23-.36-2.59v-6.3c0-2 0-3.9 0-5.85.2-1.74.4-3.47.59-5.2v.69l.45 3.73z" fill="#b0b0b6" transform="translate(-.25 -.93)"/><path d="m58.49 211 .19.79h-.12-.12z" fill="#61616b" transform="translate(-.25 -.93)"/><path d="m41.31 133s-.07.06-.1.05-.06 0-.08-.06z" fill="#61616b" transform="translate(-.25 -.93)"/><path d="m57.72 164.59q.24-2.88.49-5.75c.12.75.25 1.5.37 2.25 0 .83-.09 1.66-.14 2.49z" fill="#a6a6ac" transform="translate(-.25 -.93)"/><path d="m57.15 156.9v6.33c-.12-1-.23-1.94-.35-2.91v-3.32z" fill="#61616b" transform="translate(-.25 -.93)"/><path d="m231.26 200.79h.4v.73z" fill="#0b0b1a" transform="translate(-.25 -.93)"/><path d="m11.66 132.4a.61.61 0 0 1 .07.14s-.07 0-.1 0l-.16-.09z" fill="#a6a6ac" transform="translate(-.25 -.93)"/><path d="m48.7 132.86-.65.17s0-.07 0-.1l.71-.06z" fill="#a6a6ac" transform="translate(-.25 -.93)"/><path d="m50.19 133.12.3.13-.32.1a.93.93 0 0 0 .02-.23z" fill="#a6a6ac" transform="translate(-.25 -.93)"/><path d="m117.14 112h-24.75l6.76-1.06 1.34-.18 5.88-.45 1.27-.11c4 .14 8 .27 12 .42a6.62 6.62 0 0 1 1.08.2 10 10 0 0 0 -1.09.07c-1.26.19-2.51.41-3.77.61z" fill="#61616b" transform="translate(-.25 -.93)"/><path d="m147.79 20.3 12.06-1.3 1.2.88-.36.09c1.13.17 2.25.35 3.37.49a14.16 14.16 0 0 0 1.46 0 13.14 13.14 0 0 1 -1.53.12c-5.4-.03-10.8-.16-16.2-.28z" fill="#a6a6ac" transform="translate(-.25 -.93)"/><path d="m117.14 112-1.24-.5c1.26-.2 2.51-.42 3.77-.61a10 10 0 0 1 1.09-.07 6.62 6.62 0 0 0 -1.08-.2c-4-.15-8-.28-12-.42l4.28-.44h1.67 1.07l7.72.16h1.24l4.06.25-.05.21-2 .79-3.25.28-1.49.36z" fill="#a6a6ac" transform="translate(-.25 -.93)"/><path d="m99.15 110.9-6.76 1.1-.91.06-.82.14-3.67.4-.92.16-.72.11-.73.5-3.41.66-2.09.08a51.37 51.37 0 0 1 7.37-2.11c4.19-.62 8.43-.77 12.66-1.1z" fill="#b0b0b6" transform="translate(-.25 -.93)"/><path d="m166.06 108.05v.68c-5.81-.18-11.61-.35-17.42-.55-.3 0-.6-.28-.9-.43z" fill="#a6a6ac" transform="translate(-.25 -.93)"/><path d="m120.36 20.25 2.22.06v.48l-1.28.14-5.48.44-.33-.05-1.69-.21-1.12.06-4.8-.07z" fill="#151524" transform="translate(-.25 -.93)"/><path d="m161.05 19.92-1.2-.88h1.23.75 5.25l.48.44z" fill="#b0b0b6" transform="translate(-.25 -.93)"/><path d="m218.92 23.8q-.37 2.82-.73 5.63c-.06.35-.11.69-.17 1v.46h-.43v-.47l.15-3.25-.08-.45.11-.54v-1l.13-.54.1-.64.3-.22z" fill="#151524" transform="translate(-.25 -.93)"/><path d="m107.91 21.1 4.8.07c-1.25.34-2.48.73-3.74 1a4.94 4.94 0 0 1 -1.59-.21v-.73z" fill="#b0b0b6" transform="translate(-.25 -.93)"/><path d="m115.85 21.37 5.48-.44 1.3.45v.3z" fill="#b0b0b6" transform="translate(-.25 -.93)"/><path d="m106.37 110.27-5.88.45z" fill="#b0b0b6" transform="translate(-.25 -.93)"/><path d="m122.38 109.87-7.72-.16z" fill="#b0b0b6" transform="translate(-.25 -.93)"/><path d="m107.38 21.21v.73l-6.47-.58 5-.12h1z" fill="#a6a6ac" transform="translate(-.25 -.93)"/><path d="m142 19.84c1.28 0 2.56-.09 3.84-.09 1.8 0 3.61.06 5.42.09l-4.45.4z" fill="#a6a6ac" transform="translate(-.25 -.93)"/><path d="m215.34 63.78v.56l-.06 3.6v.48h-.46l-.06-1.91c0-.65 0-1.29 0-1.94.06-1.15.13-2.3.19-3.45.12.88.25 1.78.39 2.66z" fill="#a6a6ac" transform="translate(-.25 -.93)"/><path d="m214.78 58.43-.69 2.23c.25-2.07.51-4.14.76-6.21h.23z" fill="#a6a6ac" transform="translate(-.25 -.93)"/><path d="m127.68 110.11-4.06-.25z" fill="#b0b0b6" transform="translate(-.25 -.93)"/><path d="m214.74 64.58v1.94c-.21-1-.42-2-.62-3.08a2.29 2.29 0 0 1 .4-.13z" fill="#b0b0b6" transform="translate(-.25 -.93)"/><path d="m194.85 107.91 1.21.47-1.7.09h-2.12v-.27z" fill="#a6a6ac" transform="translate(-.25 -.93)"/><path d="m213.25 101.58c.05-1.15.09-2.09.13-3 .08.82.23 1.63.23 2.45 0 1.08-.1 2.17-.16 3.25z" fill="#b0b0b6" transform="translate(-.25 -.93)"/><path d="m196.58 21.66.5-.2 3.79.27z" fill="#a6a6ac" transform="translate(-.25 -.93)"/><path d="m217.71 27.21-.15 3.25z" fill="#61616b" transform="translate(-.25 -.93)"/><path d="m75.63 105.16a9.05 9.05 0 0 1 -.69-1.76c0-.21.45-.51.7-.77z" fill="#61616b" transform="translate(-.25 -.93)"/><path d="m217.56 30.93h.44v2c-.24-.12-.68-.23-.68-.35a10.67 10.67 0 0 1 .24-1.65z" fill="#a6a6ac" transform="translate(-.25 -.93)"/><path d="m146.42 108-2 .48-.62-.46z" fill="#a6a6ac" transform="translate(-.25 -.93)"/><path d="m88.93 22.74-2.42-.15c1.18 0 2.37-.08 3.55-.1a3 3 0 0 1 .71.14z" fill="#b0b0b6" transform="translate(-.25 -.93)"/><path d="m75.86 100.7-.6.89-.1-1.69.27-.53.5.29z" fill="#a6a6ac" transform="translate(-.25 -.93)"/><path d="m75.93 99.66-.5-.29c.08-.67.15-1.34.23-2l.4.59c-.06.56-.06 1.13-.13 1.7z" fill="#61616b" transform="translate(-.25 -.93)"/><path d="m113.59 109.74h-1.67z" fill="#b0b0b6" transform="translate(-.25 -.93)"/><path d="m215.08 54.45h-.23c.12-.63.23-1.27.34-1.9z" fill="#b0b0b6" transform="translate(-.25 -.93)"/><path d="m123.87 21.49 2.25.05-2.26.13c0-.06.01-.12.01-.18z" fill="#b0b0b6" transform="translate(-.25 -.93)"/><path d="m216 46-.31.78a1.17 1.17 0 0 1 -.06-.35c.09-.43.22-.86.33-1.28z" fill="#b0b0b6" transform="translate(-.25 -.93)"/><path d="m113.83 21.11 1.69.21z" fill="#b0b0b6" transform="translate(-.25 -.93)"/><path d="m97.16 21a.45.45 0 0 0 0 .23l-1.77.18v-.29z" fill="#b0b0b6" transform="translate(-.25 -.93)"/><path d="m81.42 46.65c-.06.3-.1.6-.14.89 0-.36-.08-.72-.08-1.08a4.72 4.72 0 0 1 .1-.64z" fill="#b0b0b6" transform="translate(-.25 -.93)"/><path d="m123.87 21.49v.18h-1.23v-.3z" fill="#a6a6ac" transform="translate(-.25 -.93)"/><path d="m77.64 114.1-1.27.09z" fill="#b0b0b6" transform="translate(-.25 -.93)"/><path d="m147.93 107.1-.72-.07a2.78 2.78 0 0 1 .49-.08h1z" fill="#b0b0b6" transform="translate(-.25 -.93)"/><path d="m95.39 21.11v.29h-1.29z" fill="#a6a6ac" transform="translate(-.25 -.93)"/><path d="m77.17 99.65-.07 1.35s-.13 0-.12-.07c.06-.42.13-.84.2-1.26z" fill="#b0b0b6" transform="translate(-.25 -.93)"/><path d="m77.18 99.66.13-1.31c0 .43-.09.87-.14 1.3z" fill="#b0b0b6" transform="translate(-.25 -.93)"/><path d="m82.3 32.6a1.91 1.91 0 0 1 -.1-.48 1.47 1.47 0 0 1 .08-.35 1.1 1.1 0 0 1 .1.34 2.06 2.06 0 0 1 -.08.49z" fill="#b0b0b6" transform="translate(-.25 -.93)"/><path d="m127.48 109.44-.38-.17a1 1 0 0 1 .32-.09 1.62 1.62 0 0 1 .43.12z" fill="#b0b0b6" transform="translate(-.25 -.93)"/><path d="m217.91 24.68-.13.54z" fill="#a6a6ac" transform="translate(-.25 -.93)"/><path d="m91.58 22.34.22.08c0 .07 0 .18-.11.2s-.13 0-.2-.07z" fill="#b0b0b6" transform="translate(-.25 -.93)"/><path d="m217.74 26.22-.11.54z" fill="#61616b" transform="translate(-.25 -.93)"/><path d="m218.34 23.76-.34.24v-.5z" fill="#a6a6ac" transform="translate(-.25 -.93)"/><path d="m211.8 212.66c-2.15.29-4.29.72-6.46.86-6.37.41-12.75.71-19.13 1a5.24 5.24 0 0 1 -1.26-.26l-4.39-1 1.93-.11 11.62-.29 6.71-.78 2.73.16-1.42.25c.1.15.23.44.3.43.79-.19 1.58-.42 2.37-.63l3.48.16 1 .09h2.29z" fill="#61616b" transform="translate(-.25 -.93)"/><path d="m194.11 212.87-11.62.29c.27-.3.54-.59.82-.88l1.62-.06a1.67 1.67 0 0 0 .43-.17l-2.05.23c-1.07.09-2.15.25-3.22.26-1.82 0-3.64 0-5.46-.06 1.48-.11 3-.24 4.45-.33 3.83-.23 7.66-.44 11.49-.66z" fill="#b0b0b6" transform="translate(-.25 -.93)"/><path d="m179.06 214.45h-1.49-.76l-1 .06-2.24.51-7.22.29c2.65-.74 5.27-1.67 8-2.16a33.41 33.41 0 0 1 5.75 0z" fill="#b0b0b6" transform="translate(-.25 -.93)"/><path d="m211.19 168c-.05 1.37-.11 2.75-.17 4.12l.54 3.26v1.48c-.11 1.1-.21 2.2-.31 3.3-.23 1.55-.45 3.1-.68 4.66-.19.68-.39 1.36-.58 2l.33-22.46.47.23c.13 1.11.27 2.23.4 3.41z" fill="#61616b" transform="translate(-.25 -.93)"/><path d="m136.86 215.76q-7.62.06-15.25.1c-.09 0-.18-.32-.26-.49h8.53c1.72 0 3.45-.22 5.17-.27 1.54 0 3.07 0 4.6.05z" fill="#b0b0b6" transform="translate(-.25 -.93)"/><path d="m189.19 124.78-2.12 1.51-8.25-.5z" fill="#61616b" transform="translate(-.25 -.93)"/><path d="m194.11 212.87-3.54-1.38 10.25.6zm3.33-.29 1-.2a5.17 5.17 0 0 0 -.95-.09 8.37 8.37 0 0 0 -1.12.15z" fill="#a6a6ac" transform="translate(-.25 -.93)"/><path d="m77.14 132 4.24-.46 3-.17 1.56.42-4.55 1.08h-.24-4v-.75z" fill="#b0b0b6" transform="translate(-.25 -.93)"/><path d="m160.34 215.35-7.5-.19z" fill="#b0b0b6" transform="translate(-.25 -.93)"/><path d="m211.8 212.66-.23-.1c0-1.88-.1-3.77-.14-5.65l.63-2.37.46.1v3.14l-.08 1.35z" fill="#a6a6ac" transform="translate(-.25 -.93)"/><path d="m151.08 126.52 8-.18z" fill="#b0b0b6" transform="translate(-.25 -.93)"/><path d="m75.65 191.54v-.49l1-.75c-.09 1.83-.17 3.67-.26 5.5l-.94-.5c0-1 .09-2 .13-3 .02-.25.04-.5.07-.76z" fill="#b0b0b6" transform="translate(-.25 -.93)"/><path d="m211 151.44.47-3c0 1.26.14 2.52.09 3.77-.07 1.72-.27 3.44-.41 5.15l-.48-3.06z" fill="#b0b0b6" transform="translate(-.25 -.93)"/><path d="m75.44 195.3.94.5c-.08 1.25-.17 2.49-.25 3.74h-.83c.05-1.41.09-2.83.14-4.24z" fill="#a6a6ac" transform="translate(-.25 -.93)"/><path d="m88.41 128.62 4 .51a1.93 1.93 0 0 0 0 .24l-5.22.32z" fill="#b0b0b6" transform="translate(-.25 -.93)"/><path d="m179.06 214.45 1-1.34.5.16 4.39 1z" fill="#a6a6ac" transform="translate(-.25 -.93)"/><path d="m117.3 215.48-2.91.24a16.83 16.83 0 0 1 2.14-1.37 3.63 3.63 0 0 1 1.47 0l-2.16.64c-.06 0-.07.19-.1.29z" fill="#b0b0b6" transform="translate(-.25 -.93)"/><path d="m211.3 161.27h-.56-.59l1-2c.02.73.09 1.37.15 2z" fill="#b0b0b6" transform="translate(-.25 -.93)"/><path d="m76.64 190.3-1 .75.18-4.52h.34l.42 2.5z" fill="#a6a6ac" transform="translate(-.25 -.93)"/><path d="m76.59 189.06-.42-2.5.69-2.26z" fill="#b0b0b6" transform="translate(-.25 -.93)"/><path d="m76.86 149.63c-.16-.56-.31-1.13-.47-1.69l-.22-3.34v-.46z" fill="#a6a6ac" transform="translate(-.25 -.93)"/><path d="m132.57 128 3.29-.68v.54z" fill="#61616b" transform="translate(-.25 -.93)"/><path d="m84.4 131.36-3 .17 2.77-.94.63.27z" fill="#a6a6ac" transform="translate(-.25 -.93)"/><path d="m76.86 184.3-.69 2.26-.24-3 .31-1z" fill="#a6a6ac" transform="translate(-.25 -.93)"/><path d="m121.33 128.76 4.28-.21z" fill="#61616b" transform="translate(-.25 -.93)"/><path d="m210.15 161.34h.59v3.26l-.47-.23z" fill="#a6a6ac" transform="translate(-.25 -.93)"/><path d="m120.83 215.35-3.21.11z" fill="#b0b0b6" transform="translate(-.25 -.93)"/><path d="m200.56 211.53-3.05-.63a2.72 2.72 0 0 1 .49 0l3.56.4z" fill="#b0b0b6" transform="translate(-.25 -.93)"/><path d="m211 151.44-.33 2.84c0-1 0-1.93 0-2.89z" fill="#61616b" transform="translate(-.25 -.93)"/><path d="m204.8 212.3c-.79.21-1.58.44-2.37.63-.07 0-.2-.28-.3-.43l1.42-.25z" fill="#a6a6ac" transform="translate(-.25 -.93)"/><path d="m207.1 211.28 1.1.44c-.2.08-.41.27-.59.23-.74-.15-1.47-.38-2.2-.58z" fill="#b0b0b6" transform="translate(-.25 -.93)"/><path d="m187.61 210.62c-.29.2-.37.3-.45.3l-4.69-.27h.37z" fill="#b0b0b6" transform="translate(-.25 -.93)"/><path d="m84.78 130.86-.63-.27 2.31-.9z" fill="#b0b0b6" transform="translate(-.25 -.93)"/><path d="m142.94 127 1.15-.15v.93z" fill="#b0b0b6" transform="translate(-.25 -.93)"/><path d="m210.19 143.93-.12 2.42z" fill="#61616b" transform="translate(-.25 -.93)"/><path d="m169.09 125.5 2.22.07z" fill="#61616b" transform="translate(-.25 -.93)"/><path d="m148.35 126.61h1.94l-1.95.48z" fill="#b0b0b6" transform="translate(-.25 -.93)"/><path d="m209.88 200h.37.3l-.14 1.29h-.54z" fill="#61616b" transform="translate(-.25 -.93)"/><path d="m212.56 128.12-.23.66a4 4 0 0 1 -.23-.92 2 2 0 0 1 .29-.7z" fill="#b0b0b6" transform="translate(-.25 -.93)"/><path d="m76.27 182.06-.11-1.2.71.44z" fill="#b0b0b6" transform="translate(-.25 -.93)"/><path d="m76.19 179.78a1.09 1.09 0 0 1 -.08-.15s0 0 .07-.07l.35-2c0 .11.14.23.12.32-.14.62-.31 1.26-.46 1.9z" fill="#b0b0b6" transform="translate(-.25 -.93)"/><path d="m77.45 167.15a3.18 3.18 0 0 1 -.39-.82c0-.14.16-.3.25-.45.11.13.3.25.32.38a3.85 3.85 0 0 1 -.18.89z" fill="#b0b0b6" transform="translate(-.25 -.93)"/><path d="m214 126.1-.2 1.27z" fill="#b0b0b6" transform="translate(-.25 -.93)"/><path d="m130.07 128.22 1.54-.14z" fill="#61616b" transform="translate(-.25 -.93)"/><path d="m77.14 132.07v.75l-.94.09v-.76z" fill="#a6a6ac" transform="translate(-.25 -.93)"/><path d="m116.64 128.8h1.22z" fill="#61616b" transform="translate(-.25 -.93)"/><path d="m135.84 127.85v-.54h.95l.36.18z" fill="#a6a6ac" transform="translate(-.25 -.93)"/><path d="m210.73 207.07.15-1a2.44 2.44 0 0 1 .18.73 8.2 8.2 0 0 1 -.15 1.2z" fill="#b0b0b6" transform="translate(-.25 -.93)"/><path d="m209.87 201.32h.54v.68h-.58z" fill="#151524" transform="translate(-.25 -.93)"/><path d="m105.39 129.12h2.25z" fill="#61616b" transform="translate(-.25 -.93)"/><path d="m178.91 211-.71-.09c.31 0 .63-.07.94-.08a4 4 0 0 1 .59.07z" fill="#b0b0b6" transform="translate(-.25 -.93)"/><path d="m202.91 125.38-.63-.17a2.89 2.89 0 0 1 .58-.08c.28 0 .56.06.84.09z" fill="#b0b0b6" transform="translate(-.25 -.93)"/><path d="m209.28 212.55-1-.09z" fill="#a6a6ac" transform="translate(-.25 -.93)"/><path d="m76.35 175.26v-.07l.06-.06.45-1c0 .07.09.17.07.22-.22.29-.4.65-.58.91z" fill="#b0b0b6" transform="translate(-.25 -.93)"/><path d="m127.81 128.39.8-.1z" fill="#61616b" transform="translate(-.25 -.93)"/><path d="m141.6 127.12h.49l-.3.55z" fill="#b0b0b6" transform="translate(-.25 -.93)"/><path d="m166.29 213a5.84 5.84 0 0 1 -.68 0 1 1 0 0 1 -.3-.13 2.67 2.67 0 0 1 .48-.08c.1 0 .21.07.5.21z" fill="#b0b0b6" transform="translate(-.25 -.93)"/><path d="m121.75 214.12a4.94 4.94 0 0 1 -.51.12 1.88 1.88 0 0 1 -.33-.05c.07 0 .13-.12.2-.12a5.21 5.21 0 0 1 .64.05z" fill="#b0b0b6" transform="translate(-.25 -.93)"/><path d="m209.62 190.07.29.25-.34.26z" fill="#a6a6ac" transform="translate(-.25 -.93)"/><path d="m210.79 204.53.2-.2-.07.63z" fill="#61616b" transform="translate(-.25 -.93)"/><path d="m148.09 126.18-.04.05.05-.05z" fill="#b0b0b6"/><path d="m173.57 215 2.24-.51z" fill="#a6a6ac" transform="translate(-.25 -.93)"/><path d="m212.48 209.13.08-1.35z" fill="#61616b" transform="translate(-.25 -.93)"/><path d="m176.81 214.46h.76z" fill="#a6a6ac" transform="translate(-.25 -.93)"/><path d="m199.15 122.09-.15-.09h.2s0 0 .08.07z" fill="#0b0b1a" transform="translate(-.25 -.93)"/><path d="m120.88 111.75 1.49-.36 1.29.09-.29.41z" fill="#61616b" transform="translate(-.25 -.93)"/><path d="m84.62 113.33.73-.5z" fill="#61616b" transform="translate(-.25 -.93)"/><path d="m86.07 112.72.92-.16z" fill="#61616b" transform="translate(-.25 -.93)"/><path d="m90.66 112.16.82-.14z" fill="#61616b" transform="translate(-.25 -.93)"/><path d="m216.72 108.68.54-.05 3 1c-1.29 0-2.58.1-3.86 0-6.39-.34-12.77-.72-19.15-1.09l15.79.06h2.73z" fill="#61616b" transform="translate(-.25 -.93)"/><path d="m75.2 96.64.42-.1v.82c-.08.67-.15 1.34-.23 2l-.27.53z" fill="#b0b0b6" transform="translate(-.25 -.93)"/><path d="m216.72 108.68h-.91l.46-.07z" fill="#151524" transform="translate(-.25 -.93)"/><path d="m75.93 183.56.24 3h-.34z" fill="#b0b0b6" transform="translate(-.25 -.93)"/><path d="m75.65 191.54c0 .26-.05.51-.08.76.03-.25.05-.5.08-.76z" fill="#a6a6ac" transform="translate(-.25 -.93)"/><path d="m58.23 150.27-.45-3.73.78.79.41 1.13-.12.59c-.21.41-.42.81-.62 1.22z" fill="#61616b" transform="translate(-.25 -.93)"/><path d="m59 148.46-.41-1.13.3-1.24z" fill="#b0b0b6" transform="translate(-.25 -.93)"/><path d="m74.6 210.17.07-.39c0 .59-.08 1.17-.13 1.76z" fill="#61616b" transform="translate(-.25 -.93)"/><path d="m211.55 176.81c0-.49 0-1 0-1.48z" fill="#b0b0b6" transform="translate(-.25 -.93)"/><path d="m211.67 138.27.6-.56v.66z" fill="#61616b" transform="translate(-.25 -.93)"/><path d="m212.28 137.75-.4-.65z" fill="#61616b" transform="translate(-.25 -.93)"/><path d="m210.55 200h-.3l.27-.75h.12.12c0 .15 0 .31.05.46l-.09.28z" fill="#a6a6ac" transform="translate(-.25 -.93)"/><path d="m210.76 199.31h-.12-.12c0-.24 0-.48 0-.72h.26z" fill="#61616b" transform="translate(-.25 -.93)"/><path d="m123.66 111.48-1.29-.09 3.25-.28z" fill="#b0b0b6" transform="translate(-.25 -.93)"/><path d="m210.55 200h.17c-.1.65-.2 1.3-.29 2 0-.23 0-.46 0-.68.03-.42.07-.85.12-1.32z" fill="#b0b0b6" transform="translate(-.25 -.93)"/><path d="m58.21 158.33c0-.34-.09-.69-.13-1 .04.31.09.67.13 1z" fill="#a6a6ac" transform="translate(-.25 -.93)"/><path d="m93.21 10.18.52.28c-.15.09-.3.25-.45.25s-.3-.16-.45-.25z" fill="#151524" transform="translate(-.25 -.93)"/><path d="m106.9 21.21h-1z" fill="#b0b0b6" transform="translate(-.25 -.93)"/><path d="m218.24 30.49h-.22c.06-.35.11-.69.17-1h.35z" fill="#b0b0b6" transform="translate(-.25 -.93)"/><path d="m203.9 20.64h-.09.11l.09.05z" fill="#a6a6ac" transform="translate(-.25 -.93)"/><path d="m183.31 212.28 2.05-.23a1.67 1.67 0 0 1 -.43.17z" fill="#61616b" transform="translate(-.25 -.93)"/><path d="m197.44 212.58-1.06-.14a8.37 8.37 0 0 1 1.12-.15 5.17 5.17 0 0 1 .95.09z" fill="#b0b0b6" transform="translate(-.25 -.93)"/></svg>